<svg width="506" height="19" viewBox="0 0 506 19" fill="none" xmlns="http://www.w3.org/2000/svg">
<path d="M5.47119 14.5C7.71973 14.5 9.05273 13.394 9.05273 11.5337C9.05273 10.1348 8.13721 9.146 6.69434 8.96289V8.8457C7.7124 8.6626 8.51807 7.6665 8.51807 6.56787C8.51807 4.94922 7.33154 3.93115 5.39062 3.93115H1.34766V14.5H5.47119ZM2.66602 5.0957H5.1123C6.42334 5.0957 7.18506 5.71826 7.18506 6.79492C7.18506 7.91553 6.37207 8.48682 4.77539 8.48682H2.66602V5.0957ZM2.66602 13.3354V9.62207H5.14893C6.8335 9.62207 7.69775 10.2446 7.69775 11.4678C7.69775 12.6909 6.86279 13.3354 5.27344 13.3354H2.66602ZM12.5244 14.5V3.93115H11.2061V14.5H12.5244ZM24.0894 10.4131V9.12402H19.8047V10.2812H22.7783V10.5376C22.7783 12.3247 21.4966 13.5332 19.6069 13.5332C17.4829 13.5332 16.1646 11.8779 16.1646 9.21191C16.1646 6.58252 17.5049 4.89795 19.5996 4.89795C21.167 4.89795 22.229 5.65234 22.6831 7.08057H24.0234C23.6426 4.98584 21.9434 3.68213 19.5996 3.68213C16.7065 3.68213 14.8096 5.87207 14.8096 9.21191C14.8096 12.5957 16.6772 14.749 19.5996 14.749C22.3022 14.749 24.0894 13.0205 24.0894 10.4131ZM31.9629 14.5V6.3042H32.0801L37.8149 14.5H39.0967V3.93115H37.793V12.1562H37.6758L31.9409 3.93115H30.6592V14.5H31.9629ZM48.3398 13.3135H43.1104V9.68066H48.0688V8.50879H43.1104V5.11768H48.3398V3.93115H41.792V14.5H48.3398V13.3135ZM56.5942 6.15771H56.6821L59.1138 14.5H60.3589L63.2373 3.93115H61.8604L59.7583 12.5225H59.6704L57.3047 3.93115H55.9717L53.606 12.5225H53.5181L51.416 3.93115H50.0391L52.9175 14.5H54.1626L56.5942 6.15771ZM64.7388 11.7388C64.8779 13.5625 66.4233 14.749 68.6646 14.749C71.0815 14.749 72.6123 13.5112 72.6123 11.5703C72.6123 10.0176 71.7334 9.16797 69.5435 8.61865L68.4375 8.32568C66.98 7.95215 66.4014 7.47607 66.4014 6.64844C66.4014 5.5791 67.3315 4.87598 68.7378 4.87598C70.0562 4.87598 70.9497 5.52051 71.1328 6.60449H72.4585C72.3486 4.89795 70.8252 3.68213 68.7817 3.68213C66.5479 3.68213 65.0464 4.89795 65.0464 6.69238C65.0464 8.19385 65.874 9.05811 67.7856 9.5415L69.1406 9.89307C70.5981 10.2593 71.2573 10.8306 71.2573 11.7314C71.2573 12.7788 70.21 13.5479 68.7891 13.5479C67.2876 13.5479 66.2329 12.8447 66.0718 11.7388H64.7388ZM78.9551 14.5H80.2148V3.46973H78.9551V14.5ZM85.9058 14.6392C88.1543 14.6392 89.5459 13.0864 89.5459 10.5522C89.5459 8.01074 88.1543 6.46533 85.9058 6.46533C83.6572 6.46533 82.2656 8.01074 82.2656 10.5522C82.2656 13.0864 83.6572 14.6392 85.9058 14.6392ZM85.9058 13.5039C84.4116 13.5039 83.5693 12.4199 83.5693 10.5522C83.5693 8.67725 84.4116 7.60059 85.9058 7.60059C87.3999 7.60059 88.2422 8.67725 88.2422 10.5522C88.2422 12.4199 87.3999 13.5039 85.9058 13.5039ZM91.5967 14.5H92.8564V3.46973H91.5967V14.5ZM100.825 6.60449H99.5654V14.9102C99.5654 15.7817 99.2725 16.1333 98.3789 16.1333H98.1885V17.21H98.4082C100.063 17.21 100.825 16.5142 100.825 14.8882V6.60449ZM100.195 5.00049C100.679 5.00049 101.074 4.60498 101.074 4.12158C101.074 3.63818 100.679 3.24268 100.195 3.24268C99.7119 3.24268 99.3164 3.63818 99.3164 4.12158C99.3164 4.60498 99.7119 5.00049 100.195 5.00049ZM104.678 10.0542H104.561V3.46973H103.301V14.5H104.561V11.5044L105.315 10.8013L108.274 14.5H109.878L106.252 9.98828L109.651 6.60449H108.105L104.678 10.0542ZM115.422 8.76514C115.422 9.90771 116.096 10.5449 117.576 10.9038L118.931 11.2334C119.773 11.4385 120.183 11.8047 120.183 12.3467C120.183 13.0718 119.421 13.5771 118.359 13.5771C117.349 13.5771 116.719 13.1523 116.506 12.4858H115.21C115.349 13.7969 116.558 14.6392 118.315 14.6392C120.11 14.6392 121.479 13.665 121.479 12.2515C121.479 11.1162 120.762 10.4717 119.275 10.1128L118.059 9.81982C117.129 9.59277 116.689 9.25586 116.689 8.71387C116.689 8.01074 117.422 7.53467 118.359 7.53467C119.312 7.53467 119.927 7.95215 120.095 8.58203H121.34C121.172 7.28564 120.022 6.46533 118.367 6.46533C116.689 6.46533 115.422 7.4541 115.422 8.76514ZM123.911 4.56104V6.60449H122.637V7.65918H123.911V12.4492C123.911 13.958 124.563 14.5586 126.189 14.5586C126.438 14.5586 126.68 14.5293 126.929 14.4854V13.4233C126.694 13.4453 126.57 13.4526 126.343 13.4526C125.522 13.4526 125.171 13.0571 125.171 12.127V7.65918H126.929V6.60449H125.171V4.56104H123.911ZM128.862 14.5H130.122V6.60449H128.862V14.5ZM129.492 5.00049C129.976 5.00049 130.371 4.60498 130.371 4.12158C130.371 3.63818 129.976 3.24268 129.492 3.24268C129.009 3.24268 128.613 3.63818 128.613 4.12158C128.613 4.60498 129.009 5.00049 129.492 5.00049ZM132.598 14.5H133.857V3.46973H132.598V14.5ZM136.377 14.5H137.637V3.46973H136.377V14.5ZM148.542 14.5V5.11768H151.948V3.93115H143.818V5.11768H147.224V14.5H148.542ZM162.803 6.60449H161.536L159.983 12.918H159.866L158.101 6.60449H156.892L155.127 12.918H155.01L153.457 6.60449H152.183L154.395 14.5H155.669L157.427 8.3916H157.544L159.309 14.5H160.591L162.803 6.60449ZM164.517 14.5H165.776V6.60449H164.517V14.5ZM165.146 5.00049C165.63 5.00049 166.025 4.60498 166.025 4.12158C166.025 3.63818 165.63 3.24268 165.146 3.24268C164.663 3.24268 164.268 3.63818 164.268 4.12158C164.268 4.60498 164.663 5.00049 165.146 5.00049ZM168.706 4.56104V6.60449H167.432V7.65918H168.706V12.4492C168.706 13.958 169.358 14.5586 170.984 14.5586C171.233 14.5586 171.475 14.5293 171.724 14.4854V13.4233C171.489 13.4453 171.365 13.4526 171.138 13.4526C170.317 13.4526 169.966 13.0571 169.966 12.127V7.65918H171.724V6.60449H169.966V4.56104H168.706ZM174.155 4.56104V6.60449H172.881V7.65918H174.155V12.4492C174.155 13.958 174.807 14.5586 176.433 14.5586C176.682 14.5586 176.924 14.5293 177.173 14.4854V13.4233C176.938 13.4453 176.814 13.4526 176.587 13.4526C175.767 13.4526 175.415 13.0571 175.415 12.127V7.65918H177.173V6.60449H175.415V4.56104H174.155ZM182.109 7.57861C183.362 7.57861 184.197 8.50146 184.226 9.90039H179.875C179.971 8.50146 180.85 7.57861 182.109 7.57861ZM184.189 12.4565C183.86 13.1523 183.171 13.5259 182.153 13.5259C180.813 13.5259 179.941 12.5371 179.875 10.9771V10.9185H185.552V10.4351C185.552 7.98145 184.255 6.46533 182.124 6.46533C179.956 6.46533 178.564 8.07666 178.564 10.5596C178.564 13.0571 179.934 14.6392 182.124 14.6392C183.853 14.6392 185.068 13.8115 185.449 12.4565H184.189ZM187.529 14.5H188.789V9.60742C188.789 8.49414 189.661 7.68848 190.862 7.68848C191.111 7.68848 191.565 7.73242 191.667 7.76172V6.50195C191.506 6.47998 191.243 6.46533 191.038 6.46533C189.99 6.46533 189.082 7.00732 188.848 7.77637H188.73V6.60449H187.529V14.5Z" fill="#D9D9D9"/>
</svg>
