<svg width="34" height="34" viewBox="0 0 34 34" fill="none" xmlns="http://www.w3.org/2000/svg">
<rect width="34" height="34" rx="17" fill="black"/>
<path d="M21.6084 13.225L17.4417 9.05833C17.1975 8.81417 16.8017 8.81417 16.5584 9.05833L12.3917 13.225C12.1467 13.4692 12.1467 13.865 12.3917 14.1083C12.6367 14.3517 13.0309 14.3533 13.275 14.1083L16.375 11.0083V19.5C16.375 19.845 16.655 20.125 17 20.125C17.345 20.125 17.625 19.845 17.625 19.5V11.0083L20.725 14.1083C20.8467 14.2308 21.0067 14.2917 21.1667 14.2917C21.3267 14.2917 21.4867 14.2317 21.6084 14.1083C21.8525 13.8642 21.8525 13.4692 21.6084 13.225Z" fill="#6E767D"/>
<path d="M23.4234 25.2867H10.5767C9.52335 25.2867 8.66669 24.43 8.66669 23.3767V18.6667C8.66669 18.3217 8.94669 18.0417 9.29169 18.0417C9.63669 18.0417 9.91669 18.3217 9.91669 18.6667V23.3767C9.91669 23.7408 10.2125 24.0367 10.5767 24.0367H23.4234C23.7875 24.0367 24.0834 23.7408 24.0834 23.3767V18.6667C24.0834 18.3217 24.3634 18.0417 24.7084 18.0417C25.0534 18.0417 25.3334 18.3217 25.3334 18.6667V23.3767C25.3334 24.43 24.4767 25.2867 23.4234 25.2867Z" fill="#6E767D"/>
</svg>
