<svg width="181" height="24" viewBox="0 0 181 24" fill="none" xmlns="http://www.w3.org/2000/svg">
<path d="M9.61914 7.87695H9.73633L12.9785 19H14.6387L18.4766 4.9082H16.6406L13.8379 16.3633H13.7207L10.5664 4.9082H8.78906L5.63477 16.3633H5.51758L2.71484 4.9082H0.878906L4.7168 19H6.37695L9.61914 7.87695ZM21.0352 19H22.7148V12.7695C22.7148 10.9922 23.75 9.80078 25.6348 9.80078C27.2266 9.80078 28.0664 10.7285 28.0664 12.5938V19H29.7461V12.1836C29.7461 9.71289 28.3398 8.28711 26.1133 8.28711C24.502 8.28711 23.3984 8.9707 22.8711 10.1328H22.7148V4.29297H21.0352V19ZM36.0547 17.7109C34.834 17.7109 33.9258 17.0859 33.9258 16.0117C33.9258 14.957 34.6289 14.4004 36.2305 14.293L39.0625 14.1074V15.0742C39.0625 16.5781 37.7832 17.7109 36.0547 17.7109ZM35.7422 19.1855C37.1484 19.1855 38.3008 18.5703 38.9844 17.4473H39.1406V19H40.7422V11.793C40.7422 9.60547 39.3066 8.28711 36.7383 8.28711C34.4922 8.28711 32.832 9.40039 32.6074 11.0898H34.3066C34.541 10.2598 35.4199 9.78125 36.6797 9.78125C38.252 9.78125 39.0625 10.4941 39.0625 11.793V12.75L36.0254 12.9355C33.5742 13.082 32.1875 14.166 32.1875 16.0508C32.1875 17.9746 33.7012 19.1855 35.7422 19.1855ZM44.5508 5.74805V8.47266H42.8516V9.87891H44.5508V16.2656C44.5508 18.2773 45.4199 19.0781 47.5879 19.0781C47.9199 19.0781 48.2422 19.0391 48.5742 18.9805V17.5645C48.2617 17.5938 48.0957 17.6035 47.793 17.6035C46.6992 17.6035 46.2305 17.0762 46.2305 15.8359V9.87891H48.5742V8.47266H46.2305V5.74805H44.5508ZM52.9004 10.1719L54.4727 4.9082H52.5684L51.6797 10.1719H52.9004ZM55.9082 11.3535C55.9082 12.877 56.8066 13.7266 58.7793 14.2051L60.5859 14.6445C61.709 14.918 62.2559 15.4062 62.2559 16.1289C62.2559 17.0957 61.2402 17.7695 59.8242 17.7695C58.4766 17.7695 57.6367 17.2031 57.3535 16.3145H55.625C55.8105 18.0625 57.4219 19.1855 59.7656 19.1855C62.1582 19.1855 63.9844 17.8867 63.9844 16.002C63.9844 14.4883 63.0273 13.6289 61.0449 13.1504L59.4238 12.7598C58.1836 12.457 57.5977 12.0078 57.5977 11.2852C57.5977 10.3477 58.5742 9.71289 59.8242 9.71289C61.0938 9.71289 61.9141 10.2695 62.1387 11.1094H63.7988C63.5742 9.38086 62.041 8.28711 59.834 8.28711C57.5977 8.28711 55.9082 9.60547 55.9082 11.3535ZM72.3633 19H74.043V12.7695C74.043 10.9922 75.0781 9.80078 76.9629 9.80078C78.5547 9.80078 79.3945 10.7285 79.3945 12.5938V19H81.0742V12.1836C81.0742 9.71289 79.668 8.28711 77.4414 8.28711C75.8301 8.28711 74.7266 8.9707 74.1992 10.1328H74.043V4.29297H72.3633V19ZM87.3828 17.7109C86.1621 17.7109 85.2539 17.0859 85.2539 16.0117C85.2539 14.957 85.957 14.4004 87.5586 14.293L90.3906 14.1074V15.0742C90.3906 16.5781 89.1113 17.7109 87.3828 17.7109ZM87.0703 19.1855C88.4766 19.1855 89.6289 18.5703 90.3125 17.4473H90.4688V19H92.0703V11.793C92.0703 9.60547 90.6348 8.28711 88.0664 8.28711C85.8203 8.28711 84.1602 9.40039 83.9355 11.0898H85.6348C85.8691 10.2598 86.748 9.78125 88.0078 9.78125C89.5801 9.78125 90.3906 10.4941 90.3906 11.793V12.75L87.3535 12.9355C84.9023 13.082 83.5156 14.166 83.5156 16.0508C83.5156 17.9746 85.0293 19.1855 87.0703 19.1855ZM100.303 8.28711C98.8672 8.28711 97.6074 9.01953 96.9336 10.2305H96.7773V8.47266H95.1758V22.5156H96.8555V17.418H97.0117C97.5879 18.5312 98.7988 19.1855 100.303 19.1855C102.979 19.1855 104.727 17.0273 104.727 13.7363C104.727 10.4258 102.988 8.28711 100.303 8.28711ZM99.9023 17.6719C98.0078 17.6719 96.8066 16.1484 96.8066 13.7363C96.8066 11.3145 98.0078 9.80078 99.9121 9.80078C101.836 9.80078 102.988 11.2754 102.988 13.7363C102.988 16.1973 101.836 17.6719 99.9023 17.6719ZM112.49 8.28711C111.055 8.28711 109.795 9.01953 109.121 10.2305H108.965V8.47266H107.363V22.5156H109.043V17.418H109.199C109.775 18.5312 110.986 19.1855 112.49 19.1855C115.166 19.1855 116.914 17.0273 116.914 13.7363C116.914 10.4258 115.176 8.28711 112.49 8.28711ZM112.09 17.6719C110.195 17.6719 108.994 16.1484 108.994 13.7363C108.994 11.3145 110.195 9.80078 112.1 9.80078C114.023 9.80078 115.176 11.2754 115.176 13.7363C115.176 16.1973 114.023 17.6719 112.09 17.6719ZM123.75 9.77148C125.42 9.77148 126.533 11.002 126.572 12.8672H120.771C120.898 11.002 122.07 9.77148 123.75 9.77148ZM126.523 16.2754C126.084 17.2031 125.166 17.7012 123.809 17.7012C122.021 17.7012 120.859 16.3828 120.771 14.3027V14.2246H128.34V13.5801C128.34 10.3086 126.611 8.28711 123.77 8.28711C120.879 8.28711 119.023 10.4355 119.023 13.7461C119.023 17.0762 120.85 19.1855 123.77 19.1855C126.074 19.1855 127.695 18.082 128.203 16.2754H126.523ZM130.977 19H132.656V12.7695C132.656 10.9238 133.74 9.80078 135.42 9.80078C137.1 9.80078 137.9 10.6992 137.9 12.5938V19H139.58V12.1836C139.58 9.68359 138.262 8.28711 135.898 8.28711C134.287 8.28711 133.262 8.9707 132.734 10.1328H132.578V8.47266H130.977V19ZM142.695 19H144.375V8.47266H142.695V19ZM143.535 6.33398C144.18 6.33398 144.707 5.80664 144.707 5.16211C144.707 4.51758 144.18 3.99023 143.535 3.99023C142.891 3.99023 142.363 4.51758 142.363 5.16211C142.363 5.80664 142.891 6.33398 143.535 6.33398ZM147.578 19H149.258V12.7695C149.258 10.9238 150.342 9.80078 152.021 9.80078C153.701 9.80078 154.502 10.6992 154.502 12.5938V19H156.182V12.1836C156.182 9.68359 154.863 8.28711 152.5 8.28711C150.889 8.28711 149.863 8.9707 149.336 10.1328H149.18V8.47266H147.578V19ZM163.516 17.3594C161.562 17.3594 160.469 15.875 160.469 13.5801C160.469 11.2852 161.562 9.80078 163.516 9.80078C165.459 9.80078 166.641 11.2852 166.641 13.5801C166.641 15.875 165.469 17.3594 163.516 17.3594ZM163.594 23.043C166.465 23.043 168.281 21.5391 168.281 19.1855V8.47266H166.68V10.1426H166.523C165.918 9.00977 164.619 8.28711 163.145 8.28711C160.439 8.28711 158.73 10.4258 158.73 13.5801C158.73 16.7344 160.42 18.8438 163.145 18.8438C164.59 18.8438 165.781 18.1895 166.445 17.0273H166.602V19.0977C166.602 20.6504 165.479 21.5781 163.594 21.5781C162.08 21.5781 161.143 21.0215 160.957 20.1621H159.18C159.434 21.9004 161.055 23.043 163.594 23.043ZM170.645 8.58984H172.314C172.422 7.19336 173.359 6.32422 174.834 6.32422C176.289 6.32422 177.227 7.21289 177.227 8.42383C177.227 9.46875 176.787 10.084 175.654 10.7773C174.316 11.5781 173.691 12.457 173.701 13.7461V14.6445H175.41V14.0098C175.41 12.9844 175.762 12.4375 177.002 11.7051C178.252 10.9531 179.043 9.86914 179.043 8.33594C179.043 6.32422 177.363 4.80078 174.902 4.80078C172.158 4.80078 170.752 6.48047 170.645 8.58984ZM174.688 19.1758C175.479 19.1758 176.035 18.6094 176.035 17.8184C176.035 17.0176 175.479 16.4512 174.688 16.4512C173.896 16.4512 173.33 17.0176 173.33 17.8184C173.33 18.6094 173.896 19.1758 174.688 19.1758Z" fill="#6E767D"/>
</svg>
