<svg width="208" height="23" viewBox="0 0 208 23" fill="none" xmlns="http://www.w3.org/2000/svg">
<g filter="url(#filter0_d_103_1144)">
<path d="M10.0571 14.5V5.8208H13.2285V3.93115H4.67383V5.8208H7.84521V14.5H10.0571ZM25.6797 6.42139H23.563L22.3618 12.2148H22.23L20.8091 6.42139H18.7729L17.3594 12.2148H17.2275L16.0264 6.42139H13.8657L16.019 14.5H18.2603L19.6885 8.92627H19.8203L21.2632 14.5H23.5337L25.6797 6.42139ZM27.2178 14.5H29.3491V6.42139H27.2178V14.5ZM28.2871 5.29346C29.0488 5.29346 29.5469 4.84668 29.5469 4.2168C29.5469 3.57959 29.0488 3.14014 28.2871 3.14014C27.5181 3.14014 27.0273 3.57959 27.0273 4.2168C27.0273 4.84668 27.5181 5.29346 28.2871 5.29346ZM32.1177 4.50244V6.50195H30.8579V8.1792H32.1177V12.3174C32.1177 13.8921 32.894 14.5293 34.8569 14.5293C35.2671 14.5293 35.6626 14.4854 35.9263 14.4341V12.8081C35.7212 12.8301 35.5747 12.8374 35.2964 12.8374C34.5713 12.8374 34.249 12.5151 34.249 11.812V8.1792H35.9263V6.50195H34.249V4.50244H32.1177ZM38.3872 4.50244V6.50195H37.1274V8.1792H38.3872V12.3174C38.3872 13.8921 39.1636 14.5293 41.1265 14.5293C41.5366 14.5293 41.9321 14.4854 42.1958 14.4341V12.8081C41.9907 12.8301 41.8442 12.8374 41.5659 12.8374C40.8408 12.8374 40.5186 12.5151 40.5186 11.812V8.1792H42.1958V6.50195H40.5186V4.50244H38.3872ZM47.4106 7.87891C48.4067 7.87891 49.0513 8.54541 49.0952 9.61475H45.6528C45.7261 8.56738 46.4219 7.87891 47.4106 7.87891ZM49.1392 12.2002C48.9121 12.7349 48.3335 13.0352 47.4912 13.0352C46.3779 13.0352 45.6748 12.2881 45.6455 11.0869V10.9771H51.1899V10.3252C51.1899 7.76172 49.7837 6.24561 47.4033 6.24561C45.001 6.24561 43.5215 7.87158 43.5215 10.501C43.5215 13.123 44.9717 14.6758 47.4326 14.6758C49.4102 14.6758 50.8018 13.7236 51.124 12.2002H49.1392ZM52.9404 14.5H55.0718V10.0249C55.0718 8.88965 55.8701 8.20117 57.0347 8.20117C57.3789 8.20117 57.877 8.26709 58.0454 8.33301V6.39209C57.8623 6.32617 57.5034 6.28955 57.2104 6.28955C56.1851 6.28955 55.3501 6.90479 55.1377 7.71045H55.0059V6.42139H52.9404V14.5Z" fill="#D9D9D9"/>
</g>
<path d="M79.75 10.9167C79.75 9.6 79.0208 8.45833 77.96 7.91667C78.0883 7.55417 78.1583 7.1625 78.1583 6.75C78.1583 4.90833 76.7333 3.41833 74.9767 3.41833C74.585 3.41833 74.21 3.48833 73.8633 3.62667C73.3483 2.5125 72.2583 1.75 71 1.75C69.7417 1.75 68.6533 2.51417 68.1358 3.625C67.79 3.4875 67.4142 3.41667 67.0225 3.41667C65.2642 3.41667 63.8408 4.90833 63.8408 6.75C63.8408 7.16167 63.91 7.55333 64.0383 7.91667C62.9783 8.45833 62.2492 9.59833 62.2492 10.9167C62.2492 12.1625 62.9008 13.2483 63.8675 13.8217C63.8508 13.9633 63.8408 14.105 63.8408 14.25C63.8408 16.0917 65.2642 17.5833 67.0225 17.5833C67.4142 17.5833 67.7892 17.5117 68.135 17.375C68.6517 18.4867 69.74 19.25 70.9992 19.25C72.2592 19.25 73.3475 18.4867 73.8633 17.375C74.2092 17.5108 74.5842 17.5817 74.9767 17.5817C76.735 17.5817 78.1583 16.09 78.1583 14.2483C78.1583 14.1033 78.1483 13.9617 78.1308 13.8208C79.0958 13.2483 79.75 12.1625 79.75 10.9175V10.9167ZM74.2367 8.13833L70.625 13.555C70.5042 13.7358 70.3067 13.8333 70.1042 13.8333C69.985 13.8333 69.8642 13.8 69.7575 13.7283L69.6617 13.65L67.6492 11.6375C67.405 11.3933 67.405 10.9975 67.6492 10.7542C67.8933 10.5108 68.2892 10.5092 68.5325 10.7542L70.0075 12.2267L73.195 7.44333C73.3867 7.15583 73.775 7.08 74.0617 7.27083C74.35 7.4625 74.4283 7.85083 74.2367 8.1375V8.13833Z" fill="#D9D9D9"/>
<path d="M91.8042 7.86426C92.8882 7.86426 93.5767 8.73584 93.5767 10.1128C93.5767 11.5117 92.8809 12.4199 91.7969 12.4199C90.7202 12.4199 90.0244 11.5337 90.0244 10.1494C90.0244 8.77246 90.7349 7.86426 91.8042 7.86426ZM92.0386 3.99707C88.4863 3.99707 86.0107 6.49463 86.0107 10.0762C86.0107 13.7822 88.4204 16.1992 92.1118 16.1992C93.064 16.1992 93.9355 16.082 94.5508 15.877V15.1519C94.0601 15.3496 93.1226 15.4741 92.1191 15.4741C88.9258 15.4741 86.8091 13.3354 86.8091 10.1055C86.8091 6.97803 88.9844 4.72217 91.9727 4.72217C95.0049 4.72217 97.0923 6.64111 97.0923 9.43164C97.0923 11.3433 96.4771 12.5225 95.4736 12.5225C94.8071 12.5225 94.4409 12.1416 94.4409 11.4385V7.22705H93.5913V8.25977H93.4961C93.2178 7.54199 92.5 7.08057 91.6797 7.08057C90.1782 7.08057 89.1235 8.33301 89.1235 10.1274C89.1235 11.9658 90.1636 13.2183 91.6797 13.2183C92.5659 13.2183 93.2471 12.7568 93.5767 11.9219H93.6719C93.7524 12.7275 94.4189 13.2695 95.3271 13.2695C96.9165 13.2695 97.8979 11.812 97.8979 9.44629C97.8979 6.23096 95.4956 3.99707 92.0386 3.99707ZM103.896 14.5V4.83936H107.441V3.93115H99.3555V4.83936H102.9V14.5H103.896ZM118.025 6.61182H117.058L115.293 13.3062H115.205L113.257 6.61182H112.297L110.349 13.3062H110.261L108.511 6.61182H107.537L109.771 14.5H110.781L112.722 7.95215H112.817L114.758 14.5H115.776L118.025 6.61182ZM119.797 14.5H120.757V6.61182H119.797V14.5ZM120.273 4.854C120.669 4.854 120.991 4.53174 120.991 4.13623C120.991 3.74805 120.669 3.42578 120.273 3.42578C119.885 3.42578 119.563 3.74805 119.563 4.13623C119.563 4.53174 119.885 4.854 120.273 4.854ZM123.767 4.56104V6.61182H122.478V7.4248H123.767V12.5371C123.767 13.9727 124.368 14.5439 125.876 14.5439C126.045 14.5439 126.382 14.522 126.55 14.4927V13.6724C126.389 13.687 126.133 13.6943 125.979 13.6943C125.093 13.6943 124.727 13.2842 124.727 12.3174V7.4248H126.55V6.61182H124.727V4.56104H123.767ZM129.07 4.56104V6.61182H127.781V7.4248H129.07V12.5371C129.07 13.9727 129.67 14.5439 131.179 14.5439C131.348 14.5439 131.685 14.522 131.853 14.4927V13.6724C131.692 13.687 131.436 13.6943 131.282 13.6943C130.396 13.6943 130.029 13.2842 130.029 12.3174V7.4248H131.853V6.61182H130.029V4.56104H129.07ZM136.848 7.32959C138.276 7.32959 139.221 8.3916 139.243 10.0176H134.329C134.417 8.3916 135.413 7.32959 136.848 7.32959ZM139.148 12.5518C138.811 13.3281 138.005 13.7749 136.885 13.7749C135.361 13.7749 134.373 12.6323 134.321 10.8525V10.8086H140.247V10.3838C140.247 7.97412 138.958 6.47998 136.855 6.47998C134.709 6.47998 133.333 8.08398 133.333 10.5596C133.333 13.0498 134.695 14.6318 136.863 14.6318C138.518 14.6318 139.734 13.8335 140.122 12.5518H139.148ZM142.327 14.5H143.286V9.57812C143.286 8.33301 144.194 7.41016 145.417 7.41016C145.703 7.41016 146.099 7.4541 146.274 7.50537V6.5459C146.062 6.49463 145.798 6.47998 145.535 6.47998C144.487 6.47998 143.601 7.05127 143.337 7.9082H143.242V6.61182H142.327V14.5Z" fill="#6E767D"/>
<path d="M153.175 14.5586C153.607 14.5586 153.944 14.2144 153.944 13.7896C153.944 13.3574 153.607 13.0132 153.175 13.0132C152.743 13.0132 152.399 13.3574 152.399 13.7896C152.399 14.2144 152.743 14.5586 153.175 14.5586Z" fill="#6E767D"/>
<path d="M165.72 3.71143C162.776 3.71143 160.93 5.82812 160.93 9.21191C160.93 12.5884 162.739 14.7197 165.72 14.7197C168.694 14.7197 170.496 12.5811 170.496 9.21191C170.496 5.83545 168.687 3.71143 165.72 3.71143ZM165.72 4.6416C168.035 4.6416 169.47 6.41406 169.47 9.21191C169.47 11.9951 168.042 13.7896 165.72 13.7896C163.384 13.7896 161.956 11.9951 161.956 9.21191C161.956 6.41406 163.413 4.6416 165.72 4.6416ZM179.072 8.93359C178.838 7.55664 177.644 6.47998 175.835 6.47998C173.66 6.47998 172.283 8.06201 172.283 10.5303C172.283 13.0352 173.667 14.6318 175.842 14.6318C177.644 14.6318 178.823 13.6431 179.065 12.2295H178.091C177.849 13.1963 177 13.7603 175.835 13.7603C174.275 13.7603 173.271 12.5005 173.271 10.5303C173.271 8.58203 174.268 7.34424 175.835 7.34424C177.043 7.34424 177.856 8.02539 178.098 8.93359H179.072ZM181.672 4.56104V6.61182H180.383V7.4248H181.672V12.5371C181.672 13.9727 182.273 14.5439 183.782 14.5439C183.95 14.5439 184.287 14.522 184.456 14.4927V13.6724C184.294 13.687 184.038 13.6943 183.884 13.6943C182.998 13.6943 182.632 13.2842 182.632 12.3174V7.4248H184.456V6.61182H182.632V4.56104H181.672ZM190.41 6.84619V6.85352H191.384V6.84619C191.399 5.51318 192.344 4.59033 193.706 4.59033C195.002 4.59033 196.006 5.50586 196.006 6.68506C196.006 7.59326 195.632 8.22314 194.16 9.80518L190.469 13.7969V14.5H197.273V13.5918H191.912V13.5039L194.768 10.457C196.504 8.604 197.009 7.74707 197.009 6.64844C197.009 4.98584 195.588 3.71143 193.728 3.71143C191.816 3.71143 190.425 5.02246 190.41 6.84619ZM202.737 14.7124C205.264 14.7124 206.729 12.5737 206.729 8.99219C206.729 7.64453 206.494 6.56055 206.025 5.74023C205.366 4.4292 204.238 3.71143 202.81 3.71143C200.693 3.71143 199.17 5.24951 199.17 7.35156C199.17 9.36572 200.635 10.8525 202.656 10.8525C204.041 10.8525 205.212 10.0762 205.667 8.91162C205.674 8.91162 205.688 8.91162 205.688 8.91162C205.696 8.91162 205.71 8.91162 205.71 8.91162C205.718 8.98486 205.762 9.08008 205.754 9.15332C205.681 12.1123 204.619 13.8188 202.751 13.8188C201.536 13.8188 200.642 13.0938 200.386 12.0171H199.36C199.661 13.6504 200.957 14.7124 202.737 14.7124ZM202.817 9.98096C201.265 9.98096 200.181 8.85303 200.181 7.32227C200.181 5.77686 201.316 4.59766 202.825 4.59766C204.341 4.59766 205.491 5.81348 205.491 7.38086C205.491 8.83838 204.333 9.98096 202.817 9.98096Z" fill="#6E767D"/>
<defs>
<filter id="filter0_d_103_1144" x="0.673828" y="3.14014" width="61.3716" height="19.5356" filterUnits="userSpaceOnUse" color-interpolation-filters="sRGB">
<feFlood flood-opacity="0" result="BackgroundImageFix"/>
<feColorMatrix in="SourceAlpha" type="matrix" values="0 0 0 0 0 0 0 0 0 0 0 0 0 0 0 0 0 0 127 0" result="hardAlpha"/>
<feOffset dy="4"/>
<feGaussianBlur stdDeviation="2"/>
<feComposite in2="hardAlpha" operator="out"/>
<feColorMatrix type="matrix" values="0 0 0 0 0 0 0 0 0 0 0 0 0 0 0 0 0 0 0.25 0"/>
<feBlend mode="normal" in2="BackgroundImageFix" result="effect1_dropShadow_103_1144"/>
<feBlend mode="normal" in="SourceGraphic" in2="effect1_dropShadow_103_1144" result="shape"/>
</filter>
</defs>
</svg>
