<svg width="23" height="24" viewBox="0 0 23 24" fill="none" xmlns="http://www.w3.org/2000/svg">
<path d="M18.75 22H3.25C2.01 22 1 20.99 1 19.75V4.25C1 3.01 2.01 2 3.25 2H18.75C19.99 2 21 3.01 21 4.25V19.75C21 20.99 19.99 22 18.75 22ZM3.25 3.5C2.836 3.5 2.5 3.837 2.5 4.25V19.75C2.5 20.163 2.836 20.5 3.25 20.5H18.75C19.164 20.5 19.5 20.163 19.5 19.75V4.25C19.5 3.837 19.164 3.5 18.75 3.5H3.25Z" fill="#D9D9D9"/>
<path d="M16 8.64002H6C5.586 8.64002 5.25 8.30301 5.25 7.89001C5.25 7.47701 5.586 7.14001 6 7.14001H16C16.414 7.14001 16.75 7.47501 16.75 7.89001C16.75 8.30501 16.414 8.64002 16 8.64002ZM16 12.75H6C5.586 12.75 5.25 12.414 5.25 12C5.25 11.586 5.586 11.25 6 11.25H16C16.414 11.25 16.75 11.586 16.75 12C16.75 12.414 16.414 12.75 16 12.75ZM11 16.86H6C5.586 16.86 5.25 16.525 5.25 16.11C5.25 15.695 5.586 15.36 6 15.36H11C11.414 15.36 11.75 15.697 11.75 16.11C11.75 16.523 11.414 16.86 11 16.86Z" fill="#D9D9D9"/>
</svg>
