<svg width="20" height="20" viewBox="0 0 20 20" fill="none" xmlns="http://www.w3.org/2000/svg">
<path d="M16.4584 6.09157H14.8917C14.7334 3.52491 12.6034 1.48657 10 1.48657C7.39669 1.48657 5.26669 3.52657 5.10835 6.09157H3.54169C2.50835 6.09157 1.66669 6.93074 1.66669 7.96657V16.4916C1.66669 17.5249 2.50835 18.3666 3.54169 18.3666H16.4584C17.4917 18.3666 18.3334 17.5249 18.3334 16.4916V7.96657C18.3334 6.93157 17.4917 6.09157 16.4584 6.09157V6.09157ZM10.625 13.0724V14.2357C10.625 14.5807 10.345 14.8607 10 14.8607C9.65502 14.8607 9.37502 14.5807 9.37502 14.2357V13.0724C8.73835 12.8224 8.28585 12.2057 8.28585 11.4807C8.28585 10.5332 9.05252 9.76574 10 9.76574C10.9467 9.76574 11.7142 10.5324 11.7142 11.4791C11.7142 12.2041 11.2617 12.8207 10.625 13.0707V13.0724ZM6.37335 6.09157C6.53169 4.21657 8.08752 2.73657 10 2.73657C11.9125 2.73657 13.4692 4.21741 13.6267 6.08907H6.37335V6.09157Z" fill="#D9D9D9"/>
</svg>
