<svg width="23" height="24" viewBox="0 0 23 24" fill="none" xmlns="http://www.w3.org/2000/svg">
<path d="M11 11.816C12.355 11.816 13.872 11.666 14.84 10.56C15.654 9.63001 15.918 8.19201 15.646 6.16801C15.266 3.34301 13.529 1.65601 11 1.65601C8.471 1.65601 6.734 3.34301 6.354 6.17001C6.082 8.19201 6.346 9.63001 7.16 10.56C8.128 11.667 9.645 11.816 11 11.816ZM7.84 6.36801C8.002 5.16801 8.627 3.15601 11 3.15601C13.373 3.15601 13.998 5.16901 14.16 6.36801C14.367 7.91801 14.217 8.99501 13.71 9.57301C13.255 10.093 12.444 10.316 11 10.316C9.556 10.316 8.745 10.093 8.29 9.57301C7.783 8.99501 7.633 7.91701 7.84 6.36801ZM19.28 19.236C18.403 15.71 14.998 13.246 11 13.246C7.002 13.246 3.597 15.71 2.72 19.236C2.548 19.928 2.692 20.636 3.115 21.176C3.523 21.696 4.155 21.996 4.848 21.996H17.152C17.845 21.996 18.477 21.696 18.885 21.176C19.309 20.636 19.452 19.929 19.279 19.236H19.28ZM17.704 20.252C17.578 20.412 17.388 20.498 17.152 20.498H4.848C4.613 20.498 4.422 20.413 4.296 20.252C4.159 20.078 4.116 19.84 4.176 19.598C4.886 16.743 7.693 14.748 11 14.748C14.307 14.748 17.114 16.742 17.824 19.598C17.884 19.84 17.841 20.078 17.704 20.252Z" fill="#D9D9D9"/>
</svg>
