<svg width="20" height="20" viewBox="0 0 20 20" fill="none" xmlns="http://www.w3.org/2000/svg">
<path d="M9.99995 6.8418C8.25828 6.8418 6.84161 8.25846 6.84161 10.0001C6.84161 11.7418 8.25828 13.1585 9.99995 13.1585C11.7416 13.1585 13.1583 11.7418 13.1583 10.0001C13.1583 8.25846 11.7416 6.8418 9.99995 6.8418ZM9.99995 11.9085C8.94828 11.9085 8.09161 11.0535 8.09161 10.0001C8.09161 8.9468 8.94995 8.0918 9.99995 8.0918C11.0499 8.0918 11.9083 8.9468 11.9083 10.0001C11.9083 11.0535 11.0516 11.9085 9.99995 11.9085V11.9085Z" fill="#EFF3F4"/>
<path d="M10.3 18.6459H9.69831C8.71248 18.6459 7.90331 17.9059 7.81331 16.9259L7.80165 16.8034C7.78081 16.5642 7.62915 16.3592 7.40831 16.2667C7.16998 16.1667 6.92331 16.2126 6.74331 16.3626L6.64664 16.4434C5.92331 17.0476 4.76914 16.9959 4.09664 16.3267L3.67164 15.9017C2.97498 15.2017 2.92498 14.1067 3.55498 13.3517L3.63664 13.2534C3.79164 13.0684 3.82831 12.8176 3.73831 12.5976C3.64664 12.3709 3.43998 12.2192 3.19998 12.1976L3.07498 12.1859C2.09164 12.0967 1.35248 11.2859 1.35248 10.3009V9.69925C1.35248 8.71342 2.09248 7.90425 3.07248 7.81425L3.20248 7.80258C3.43998 7.78175 3.64414 7.63008 3.73748 7.40842C3.82914 7.18342 3.79164 6.93092 3.63748 6.74592L3.55914 6.64925C2.92831 5.89258 2.97748 4.79675 3.67331 4.09925L4.09998 3.67258C4.76998 3.00258 5.92331 2.95175 6.64998 3.55591L6.74664 3.63758C6.92831 3.79091 7.18664 3.82925 7.40498 3.73925C7.62998 3.64591 7.78164 3.44091 7.80248 3.20341L7.81414 3.07591C7.90331 2.09258 8.71414 1.35425 9.69914 1.35425H10.3008C11.2866 1.35425 12.0958 2.09425 12.1858 3.07425L12.1975 3.20425C12.2183 3.44175 12.3691 3.64591 12.5908 3.73758C12.8216 3.83508 13.0741 3.78925 13.2525 3.64008L13.3525 3.55508C14.075 2.95258 15.2308 3.00341 15.9025 3.67175L16.3275 4.09842C17.0241 4.79675 17.0741 5.89258 16.4441 6.64842L16.3608 6.74675C16.2041 6.93008 16.1658 7.18175 16.2583 7.40341C16.3516 7.62841 16.5583 7.77842 16.7966 7.80175L16.9233 7.81342C17.9066 7.90258 18.6458 8.71341 18.6458 9.69841V10.3009C18.6458 11.2867 17.9058 12.0959 16.9258 12.1859L16.7966 12.1976C16.56 12.2176 16.355 12.3684 16.2633 12.5892C16.1691 12.8159 16.2075 13.0676 16.3608 13.2517L16.4441 13.3517C17.0741 14.1059 17.0241 15.2017 16.3275 15.9017L15.9025 16.3267C15.23 16.9967 14.0775 17.0467 13.3525 16.4434L13.2566 16.3634C13.0758 16.2109 12.815 16.1717 12.5983 16.2617C12.3708 16.3567 12.2191 16.5617 12.1983 16.8001L12.1866 16.9251C12.0975 17.9026 11.2866 18.6417 10.3016 18.6417L10.3 18.6459ZM7.15581 14.9626C7.40581 14.9626 7.64998 15.0126 7.88081 15.1084C8.53914 15.3817 8.98415 15.9867 9.04748 16.6884L9.05915 16.8109C9.08998 17.1442 9.36498 17.3942 9.70081 17.3942H10.3025C10.6358 17.3942 10.9108 17.1442 10.9425 16.8109L10.9541 16.6876C11.0175 15.9859 11.4625 15.3817 12.1141 15.1109C12.775 14.8359 13.5275 14.9592 14.0583 15.4026L14.1525 15.4809C14.3008 15.6042 14.4575 15.6309 14.5633 15.6309C14.735 15.6309 14.8966 15.5642 15.0183 15.4417L15.4433 15.0167C15.68 14.7801 15.6975 14.4084 15.4833 14.1517L15.4 14.0517C14.9483 13.5101 14.8358 12.7684 15.1066 12.1159C15.3783 11.4576 15.9833 11.0159 16.685 10.9517L16.8141 10.9401C17.145 10.9092 17.3975 10.6342 17.3975 10.2984V9.69675C17.3975 9.36341 17.145 9.08842 16.8125 9.05675L16.6858 9.04508C15.9808 8.98008 15.3775 8.53675 15.1066 7.88425C14.835 7.22758 14.9483 6.48591 15.4008 5.94508L15.4841 5.84675C15.6983 5.58841 15.6808 5.21675 15.4441 4.98008L15.0191 4.55508C14.8975 4.43258 14.7358 4.36591 14.5641 4.36591C14.4583 4.36591 14.3016 4.39258 14.1541 4.51591L14.0541 4.59925C13.5258 5.03925 12.7625 5.15758 12.1191 4.89425C11.4625 4.62175 11.0191 4.01758 10.955 3.31425L10.9433 3.18508C10.9141 2.85425 10.6391 2.60175 10.3041 2.60175H9.70165C9.36831 2.60175 9.09331 2.85425 9.06164 3.18675L9.04998 3.31341C8.98664 4.01591 8.54331 4.62008 7.89165 4.89091C7.23581 5.16258 6.48081 5.04341 5.94998 4.59925L5.85164 4.51925C5.70164 4.39425 5.54498 4.36925 5.43914 4.36925C5.26748 4.36925 5.10581 4.43591 4.98414 4.55758L4.55748 4.98258C4.32248 5.21925 4.30498 5.59092 4.51914 5.84758L4.60248 5.94592C5.05248 6.49008 5.16664 7.23258 4.89581 7.88342C4.62331 8.54008 4.01914 8.98342 3.31664 9.04758L3.18664 9.05925C2.85581 9.09008 2.60331 9.36508 2.60331 9.70091V10.3026C2.60331 10.6359 2.85581 10.9109 3.18831 10.9426L3.31331 10.9542C4.01998 11.0192 4.62414 11.4642 4.89414 12.1176C5.16498 12.7726 5.05248 13.5134 4.59998 14.0551L4.51998 14.1509C4.30331 14.4092 4.32164 14.7809 4.55831 15.0176L4.98331 15.4426C5.10498 15.5651 5.26664 15.6317 5.43831 15.6317C5.54414 15.6317 5.70081 15.6067 5.84831 15.4817L5.94498 15.4017C6.28331 15.1217 6.71414 14.9651 7.15581 14.9651V14.9626Z" fill="#EFF3F4"/>
</svg>
