<svg width="506" height="72" viewBox="0 0 506 72" fill="none" xmlns="http://www.w3.org/2000/svg">
<path d="M1.34766 3.43115V14H2.66602V10.228H5.32471C7.30957 10.228 8.72314 8.8291 8.72314 6.85156C8.72314 4.8374 7.33887 3.43115 5.33936 3.43115H1.34766ZM2.66602 4.60303H4.99512C6.52588 4.60303 7.36816 5.40137 7.36816 6.85156C7.36816 8.25049 6.49658 9.05615 4.99512 9.05615H2.66602V4.60303ZM10.7227 14H11.9824V9.10742C11.9824 7.99414 12.854 7.18848 14.0552 7.18848C14.3042 7.18848 14.7583 7.23242 14.8608 7.26172V6.00195C14.6997 5.97998 14.436 5.96533 14.231 5.96533C13.1836 5.96533 12.2754 6.50732 12.041 7.27637H11.9238V6.10449H10.7227V14ZM19.3652 7.07861C20.6177 7.07861 21.4526 8.00146 21.4819 9.40039H17.1313C17.2266 8.00146 18.1055 7.07861 19.3652 7.07861ZM21.4453 11.9565C21.1157 12.6523 20.4272 13.0259 19.4092 13.0259C18.0688 13.0259 17.1973 12.0371 17.1313 10.4771V10.4185H22.8076V9.93506C22.8076 7.48145 21.5112 5.96533 19.3799 5.96533C17.2119 5.96533 15.8203 7.57666 15.8203 10.0596C15.8203 12.5571 17.1899 14.1392 19.3799 14.1392C21.1084 14.1392 22.3242 13.3115 22.7051 11.9565H21.4453ZM24.6021 8.26514C24.6021 9.40771 25.2759 10.0449 26.7554 10.4038L28.1104 10.7334C28.9526 10.9385 29.3628 11.3047 29.3628 11.8467C29.3628 12.5718 28.6011 13.0771 27.5391 13.0771C26.5283 13.0771 25.8984 12.6523 25.686 11.9858H24.3896C24.5288 13.2969 25.7373 14.1392 27.4951 14.1392C29.2896 14.1392 30.6592 13.165 30.6592 11.7515C30.6592 10.6162 29.9414 9.97168 28.4546 9.61279L27.2388 9.31982C26.3086 9.09277 25.8691 8.75586 25.8691 8.21387C25.8691 7.51074 26.6016 7.03467 27.5391 7.03467C28.4912 7.03467 29.1064 7.45215 29.2749 8.08203H30.52C30.3516 6.78564 29.2017 5.96533 27.5464 5.96533C25.8691 5.96533 24.6021 6.9541 24.6021 8.26514ZM32.666 14H33.9258V6.10449H32.666V14ZM33.2959 4.50049C33.7793 4.50049 34.1748 4.10498 34.1748 3.62158C34.1748 3.13818 33.7793 2.74268 33.2959 2.74268C32.8125 2.74268 32.417 3.13818 32.417 3.62158C32.417 4.10498 32.8125 4.50049 33.2959 4.50049ZM39.2505 14.1392C40.3418 14.1392 41.2793 13.6191 41.7773 12.7402H41.8945V14H43.0957V2.96973H41.8359V7.34961H41.7261C41.2793 6.48535 40.3491 5.96533 39.2505 5.96533C37.2437 5.96533 35.9326 7.57666 35.9326 10.0522C35.9326 12.5352 37.229 14.1392 39.2505 14.1392ZM39.5435 7.10059C40.9717 7.10059 41.8652 8.24316 41.8652 10.0522C41.8652 11.876 40.979 13.0039 39.5435 13.0039C38.1006 13.0039 37.2363 11.8979 37.2363 10.0522C37.2363 8.21387 38.1079 7.10059 39.5435 7.10059ZM48.6914 7.07861C49.9438 7.07861 50.7788 8.00146 50.8081 9.40039H46.4575C46.5527 8.00146 47.4316 7.07861 48.6914 7.07861ZM50.7715 11.9565C50.4419 12.6523 49.7534 13.0259 48.7354 13.0259C47.395 13.0259 46.5234 12.0371 46.4575 10.4771V10.4185H52.1338V9.93506C52.1338 7.48145 50.8374 5.96533 48.7061 5.96533C46.5381 5.96533 45.1465 7.57666 45.1465 10.0596C45.1465 12.5571 46.5161 14.1392 48.7061 14.1392C50.4346 14.1392 51.6504 13.3115 52.0312 11.9565H50.7715ZM54.1113 14H55.3711V9.32715C55.3711 7.94287 56.1841 7.10059 57.4438 7.10059C58.7036 7.10059 59.3042 7.77441 59.3042 9.19531V14H60.564V8.8877C60.564 7.0127 59.5752 5.96533 57.8027 5.96533C56.5942 5.96533 55.8252 6.47803 55.4297 7.34961H55.3125V6.10449H54.1113V14ZM63.3984 4.06104V6.10449H62.124V7.15918H63.3984V11.9492C63.3984 13.458 64.0503 14.0586 65.6763 14.0586C65.9253 14.0586 66.167 14.0293 66.416 13.9854V12.9233C66.1816 12.9453 66.0571 12.9526 65.8301 12.9526C65.0098 12.9526 64.6582 12.5571 64.6582 11.627V7.15918H66.416V6.10449H64.6582V4.06104H63.3984ZM71.9971 11.5317C71.9971 13.1504 73.2422 14.249 75.0146 14.249C76.9263 14.249 78.0908 13.0698 78.0908 11.0557V3.43115H76.7725V11.0483C76.7725 12.3447 76.1353 13.0332 75.0073 13.0332C74.0112 13.0332 73.3374 12.418 73.3081 11.5317H71.9971ZM83.8696 14.1392C86.1182 14.1392 87.5098 12.5864 87.5098 10.0522C87.5098 7.51074 86.1182 5.96533 83.8696 5.96533C81.6211 5.96533 80.2295 7.51074 80.2295 10.0522C80.2295 12.5864 81.6211 14.1392 83.8696 14.1392ZM83.8696 13.0039C82.3755 13.0039 81.5332 11.9199 81.5332 10.0522C81.5332 8.17725 82.3755 7.10059 83.8696 7.10059C85.3638 7.10059 86.2061 8.17725 86.2061 10.0522C86.2061 11.9199 85.3638 13.0039 83.8696 13.0039ZM92.6367 7.07861C93.8892 7.07861 94.7241 8.00146 94.7534 9.40039H90.4028C90.498 8.00146 91.377 7.07861 92.6367 7.07861ZM94.7168 11.9565C94.3872 12.6523 93.6987 13.0259 92.6807 13.0259C91.3403 13.0259 90.4688 12.0371 90.4028 10.4771V10.4185H96.0791V9.93506C96.0791 7.48145 94.7827 5.96533 92.6514 5.96533C90.4834 5.96533 89.0918 7.57666 89.0918 10.0596C89.0918 12.5571 90.4614 14.1392 92.6514 14.1392C94.3799 14.1392 95.5957 13.3115 95.9766 11.9565H94.7168ZM106.575 14C108.823 14 110.156 12.894 110.156 11.0337C110.156 9.63477 109.241 8.646 107.798 8.46289V8.3457C108.816 8.1626 109.622 7.1665 109.622 6.06787C109.622 4.44922 108.435 3.43115 106.494 3.43115H102.451V14H106.575ZM103.77 4.5957H106.216C107.527 4.5957 108.289 5.21826 108.289 6.29492C108.289 7.41553 107.476 7.98682 105.879 7.98682H103.77V4.5957ZM103.77 12.8354V9.12207H106.252C107.937 9.12207 108.801 9.74463 108.801 10.9678C108.801 12.1909 107.966 12.8354 106.377 12.8354H103.77ZM112.178 14H113.438V6.10449H112.178V14ZM112.808 4.50049C113.291 4.50049 113.687 4.10498 113.687 3.62158C113.687 3.13818 113.291 2.74268 112.808 2.74268C112.324 2.74268 111.929 3.13818 111.929 3.62158C111.929 4.10498 112.324 4.50049 112.808 4.50049ZM118.762 14.1392C119.854 14.1392 120.791 13.6191 121.289 12.7402H121.406V14H122.607V2.96973H121.348V7.34961H121.238C120.791 6.48535 119.861 5.96533 118.762 5.96533C116.755 5.96533 115.444 7.57666 115.444 10.0522C115.444 12.5352 116.741 14.1392 118.762 14.1392ZM119.055 7.10059C120.483 7.10059 121.377 8.24316 121.377 10.0522C121.377 11.876 120.491 13.0039 119.055 13.0039C117.612 13.0039 116.748 11.8979 116.748 10.0522C116.748 8.21387 117.62 7.10059 119.055 7.10059ZM128.203 7.07861C129.456 7.07861 130.291 8.00146 130.32 9.40039H125.969C126.064 8.00146 126.943 7.07861 128.203 7.07861ZM130.283 11.9565C129.954 12.6523 129.265 13.0259 128.247 13.0259C126.907 13.0259 126.035 12.0371 125.969 10.4771V10.4185H131.646V9.93506C131.646 7.48145 130.349 5.96533 128.218 5.96533C126.05 5.96533 124.658 7.57666 124.658 10.0596C124.658 12.5571 126.028 14.1392 128.218 14.1392C129.946 14.1392 131.162 13.3115 131.543 11.9565H130.283ZM133.623 14H134.883V9.32715C134.883 7.94287 135.696 7.10059 136.956 7.10059C138.215 7.10059 138.816 7.77441 138.816 9.19531V14H140.076V8.8877C140.076 7.0127 139.087 5.96533 137.314 5.96533C136.106 5.96533 135.337 6.47803 134.941 7.34961H134.824V6.10449H133.623V14ZM147.144 4.06104V6.10449H145.869V7.15918H147.144V11.9492C147.144 13.458 147.795 14.0586 149.421 14.0586C149.67 14.0586 149.912 14.0293 150.161 13.9854V12.9233C149.927 12.9453 149.802 12.9526 149.575 12.9526C148.755 12.9526 148.403 12.5571 148.403 11.627V7.15918H150.161V6.10449H148.403V4.06104H147.144ZM155.193 14.1392C157.441 14.1392 158.833 12.5864 158.833 10.0522C158.833 7.51074 157.441 5.96533 155.193 5.96533C152.944 5.96533 151.553 7.51074 151.553 10.0522C151.553 12.5864 152.944 14.1392 155.193 14.1392ZM155.193 13.0039C153.699 13.0039 152.856 11.9199 152.856 10.0522C152.856 8.17725 153.699 7.10059 155.193 7.10059C156.687 7.10059 157.529 8.17725 157.529 10.0522C157.529 11.9199 156.687 13.0039 155.193 13.0039ZM167.197 6.10449H165.938V10.7773C165.938 12.1616 165.176 12.9893 163.784 12.9893C162.524 12.9893 161.997 12.3301 161.997 10.9092V6.10449H160.737V11.2168C160.737 13.0845 161.66 14.1392 163.433 14.1392C164.641 14.1392 165.483 13.6411 165.879 12.7622H165.996V14H167.197V6.10449ZM170.098 4.06104V6.10449H168.823V7.15918H170.098V11.9492C170.098 13.458 170.75 14.0586 172.375 14.0586C172.625 14.0586 172.866 14.0293 173.115 13.9854V12.9233C172.881 12.9453 172.756 12.9526 172.529 12.9526C171.709 12.9526 171.357 12.5571 171.357 11.627V7.15918H173.115V6.10449H171.357V4.06104H170.098ZM178.052 7.07861C179.304 7.07861 180.139 8.00146 180.168 9.40039H175.818C175.913 8.00146 176.792 7.07861 178.052 7.07861ZM180.132 11.9565C179.802 12.6523 179.114 13.0259 178.096 13.0259C176.755 13.0259 175.884 12.0371 175.818 10.4771V10.4185H181.494V9.93506C181.494 7.48145 180.198 5.96533 178.066 5.96533C175.898 5.96533 174.507 7.57666 174.507 10.0596C174.507 12.5571 175.876 14.1392 178.066 14.1392C179.795 14.1392 181.011 13.3115 181.392 11.9565H180.132ZM186.394 14.1392C187.485 14.1392 188.423 13.6191 188.921 12.7402H189.038V14H190.239V2.96973H188.979V7.34961H188.87C188.423 6.48535 187.493 5.96533 186.394 5.96533C184.387 5.96533 183.076 7.57666 183.076 10.0522C183.076 12.5352 184.373 14.1392 186.394 14.1392ZM186.687 7.10059C188.115 7.10059 189.009 8.24316 189.009 10.0522C189.009 11.876 188.123 13.0039 186.687 13.0039C185.244 13.0039 184.38 11.8979 184.38 10.0522C184.38 8.21387 185.251 7.10059 186.687 7.10059ZM199.351 13.0332C198.435 13.0332 197.754 12.5645 197.754 11.7588C197.754 10.9678 198.281 10.5503 199.482 10.4697L201.606 10.3306V11.0557C201.606 12.1836 200.647 13.0332 199.351 13.0332ZM199.116 14.1392C200.171 14.1392 201.035 13.6777 201.548 12.8354H201.665V14H202.866V8.59473C202.866 6.9541 201.79 5.96533 199.863 5.96533C198.179 5.96533 196.934 6.80029 196.765 8.06738H198.04C198.215 7.44482 198.875 7.08594 199.819 7.08594C200.999 7.08594 201.606 7.62061 201.606 8.59473V9.3125L199.329 9.45166C197.49 9.56152 196.45 10.3745 196.45 11.7881C196.45 13.231 197.585 14.1392 199.116 14.1392ZM209.429 14H210.688V9.32715C210.688 7.94287 211.501 7.10059 212.761 7.10059C214.021 7.10059 214.622 7.77441 214.622 9.19531V14H215.881V8.8877C215.881 7.0127 214.893 5.96533 213.12 5.96533C211.912 5.96533 211.143 6.47803 210.747 7.34961H210.63V6.10449H209.429V14ZM221.338 7.07861C222.59 7.07861 223.425 8.00146 223.455 9.40039H219.104C219.199 8.00146 220.078 7.07861 221.338 7.07861ZM223.418 11.9565C223.088 12.6523 222.4 13.0259 221.382 13.0259C220.042 13.0259 219.17 12.0371 219.104 10.4771V10.4185H224.78V9.93506C224.78 7.48145 223.484 5.96533 221.353 5.96533C219.185 5.96533 217.793 7.57666 217.793 10.0596C217.793 12.5571 219.163 14.1392 221.353 14.1392C223.081 14.1392 224.297 13.3115 224.678 11.9565H223.418ZM236.689 6.10449H235.422L233.87 12.418H233.752L231.987 6.10449H230.779L229.014 12.418H228.896L227.344 6.10449H226.069L228.281 14H229.556L231.313 7.8916H231.431L233.196 14H234.478L236.689 6.10449ZM245.039 13.0332C244.124 13.0332 243.442 12.5645 243.442 11.7588C243.442 10.9678 243.97 10.5503 245.171 10.4697L247.295 10.3306V11.0557C247.295 12.1836 246.335 13.0332 245.039 13.0332ZM244.805 14.1392C245.859 14.1392 246.724 13.6777 247.236 12.8354H247.354V14H248.555V8.59473C248.555 6.9541 247.478 5.96533 245.552 5.96533C243.867 5.96533 242.622 6.80029 242.454 8.06738H243.728C243.904 7.44482 244.563 7.08594 245.508 7.08594C246.687 7.08594 247.295 7.62061 247.295 8.59473V9.3125L245.017 9.45166C243.179 9.56152 242.139 10.3745 242.139 11.7881C242.139 13.231 243.274 14.1392 244.805 14.1392ZM254.077 12.7695C252.612 12.7695 251.792 11.6562 251.792 9.93506C251.792 8.21387 252.612 7.10059 254.077 7.10059C255.535 7.10059 256.421 8.21387 256.421 9.93506C256.421 11.6562 255.542 12.7695 254.077 12.7695ZM254.136 17.0322C256.289 17.0322 257.651 15.9043 257.651 14.1392V6.10449H256.45V7.35693H256.333C255.879 6.50732 254.905 5.96533 253.799 5.96533C251.77 5.96533 250.488 7.56934 250.488 9.93506C250.488 12.3008 251.755 13.8828 253.799 13.8828C254.883 13.8828 255.776 13.3921 256.274 12.5205H256.392V14.0732C256.392 15.2378 255.549 15.9336 254.136 15.9336C253 15.9336 252.297 15.5161 252.158 14.8716H250.825C251.016 16.1753 252.231 17.0322 254.136 17.0322ZM260.024 14H261.284V9.10742C261.284 7.99414 262.156 7.18848 263.357 7.18848C263.606 7.18848 264.06 7.23242 264.163 7.26172V6.00195C264.001 5.97998 263.738 5.96533 263.533 5.96533C262.485 5.96533 261.577 6.50732 261.343 7.27637H261.226V6.10449H260.024V14ZM268.667 7.07861C269.919 7.07861 270.754 8.00146 270.784 9.40039H266.433C266.528 8.00146 267.407 7.07861 268.667 7.07861ZM270.747 11.9565C270.417 12.6523 269.729 13.0259 268.711 13.0259C267.371 13.0259 266.499 12.0371 266.433 10.4771V10.4185H272.109V9.93506C272.109 7.48145 270.813 5.96533 268.682 5.96533C266.514 5.96533 265.122 7.57666 265.122 10.0596C265.122 12.5571 266.492 14.1392 268.682 14.1392C270.41 14.1392 271.626 13.3115 272.007 11.9565H270.747ZM277.236 7.07861C278.489 7.07861 279.324 8.00146 279.353 9.40039H275.002C275.098 8.00146 275.977 7.07861 277.236 7.07861ZM279.316 11.9565C278.987 12.6523 278.298 13.0259 277.28 13.0259C275.94 13.0259 275.068 12.0371 275.002 10.4771V10.4185H280.679V9.93506C280.679 7.48145 279.382 5.96533 277.251 5.96533C275.083 5.96533 273.691 7.57666 273.691 10.0596C273.691 12.5571 275.061 14.1392 277.251 14.1392C278.979 14.1392 280.195 13.3115 280.576 11.9565H279.316ZM282.656 14H283.916V9.10742C283.916 7.99414 284.714 7.10059 285.747 7.10059C286.743 7.10059 287.395 7.70117 287.395 8.63867V14H288.655V8.92432C288.655 7.9209 289.387 7.10059 290.486 7.10059C291.599 7.10059 292.148 7.67188 292.148 8.83643V14H293.408V8.54346C293.408 6.88818 292.507 5.96533 290.896 5.96533C289.805 5.96533 288.904 6.51465 288.479 7.34961H288.362C287.996 6.5293 287.249 5.96533 286.179 5.96533C285.125 5.96533 284.333 6.4707 283.975 7.34961H283.857V6.10449H282.656V14ZM298.857 7.07861C300.11 7.07861 300.945 8.00146 300.974 9.40039H296.624C296.719 8.00146 297.598 7.07861 298.857 7.07861ZM300.938 11.9565C300.608 12.6523 299.919 13.0259 298.901 13.0259C297.561 13.0259 296.689 12.0371 296.624 10.4771V10.4185H302.3V9.93506C302.3 7.48145 301.003 5.96533 298.872 5.96533C296.704 5.96533 295.312 7.57666 295.312 10.0596C295.312 12.5571 296.682 14.1392 298.872 14.1392C300.601 14.1392 301.816 13.3115 302.197 11.9565H300.938ZM304.277 14H305.537V9.32715C305.537 7.94287 306.35 7.10059 307.61 7.10059C308.87 7.10059 309.47 7.77441 309.47 9.19531V14H310.73V8.8877C310.73 7.0127 309.741 5.96533 307.969 5.96533C306.76 5.96533 305.991 6.47803 305.596 7.34961H305.479V6.10449H304.277V14ZM313.564 4.06104V6.10449H312.29V7.15918H313.564V11.9492C313.564 13.458 314.216 14.0586 315.842 14.0586C316.091 14.0586 316.333 14.0293 316.582 13.9854V12.9233C316.348 12.9453 316.223 12.9526 315.996 12.9526C315.176 12.9526 314.824 12.5571 314.824 11.627V7.15918H316.582V6.10449H314.824V4.06104H313.564ZM322.72 14H323.979V9.10742C323.979 7.99414 324.851 7.18848 326.052 7.18848C326.301 7.18848 326.755 7.23242 326.858 7.26172V6.00195C326.697 5.97998 326.433 5.96533 326.228 5.96533C325.181 5.96533 324.272 6.50732 324.038 7.27637H323.921V6.10449H322.72V14ZM331.362 7.07861C332.615 7.07861 333.45 8.00146 333.479 9.40039H329.128C329.224 8.00146 330.103 7.07861 331.362 7.07861ZM333.442 11.9565C333.113 12.6523 332.424 13.0259 331.406 13.0259C330.066 13.0259 329.194 12.0371 329.128 10.4771V10.4185H334.805V9.93506C334.805 7.48145 333.508 5.96533 331.377 5.96533C329.209 5.96533 327.817 7.57666 327.817 10.0596C327.817 12.5571 329.187 14.1392 331.377 14.1392C333.105 14.1392 334.321 13.3115 334.702 11.9565H333.442ZM339.214 13.0332C338.298 13.0332 337.617 12.5645 337.617 11.7588C337.617 10.9678 338.145 10.5503 339.346 10.4697L341.47 10.3306V11.0557C341.47 12.1836 340.51 13.0332 339.214 13.0332ZM338.979 14.1392C340.034 14.1392 340.898 13.6777 341.411 12.8354H341.528V14H342.729V8.59473C342.729 6.9541 341.653 5.96533 339.727 5.96533C338.042 5.96533 336.797 6.80029 336.628 8.06738H337.903C338.079 7.44482 338.738 7.08594 339.683 7.08594C340.862 7.08594 341.47 7.62061 341.47 8.59473V9.3125L339.192 9.45166C337.354 9.56152 336.313 10.3745 336.313 11.7881C336.313 13.231 337.449 14.1392 338.979 14.1392ZM351.592 8.52148C351.372 7.11523 350.2 5.96533 348.281 5.96533C346.069 5.96533 344.663 7.56201 344.663 10.0229C344.663 12.5352 346.077 14.1392 348.289 14.1392C350.186 14.1392 351.365 13.0698 351.592 11.6196H350.317C350.083 12.5132 349.343 13.0039 348.281 13.0039C346.875 13.0039 345.967 11.8467 345.967 10.0229C345.967 8.23584 346.86 7.10059 348.281 7.10059C349.417 7.10059 350.112 7.73779 350.317 8.52148H351.592ZM353.525 14H354.785V9.32715C354.785 7.99414 355.562 7.10059 356.975 7.10059C358.169 7.10059 358.799 7.79639 358.799 9.19531V14H360.059V8.8877C360.059 7.03467 359.004 5.96533 357.334 5.96533C356.125 5.96533 355.298 6.47803 354.902 7.34961H354.785V2.96973H353.525V14ZM365.508 7.07861C366.76 7.07861 367.595 8.00146 367.625 9.40039H363.274C363.369 8.00146 364.248 7.07861 365.508 7.07861ZM367.588 11.9565C367.258 12.6523 366.57 13.0259 365.552 13.0259C364.211 13.0259 363.34 12.0371 363.274 10.4771V10.4185H368.95V9.93506C368.95 7.48145 367.654 5.96533 365.522 5.96533C363.354 5.96533 361.963 7.57666 361.963 10.0596C361.963 12.5571 363.333 14.1392 365.522 14.1392C367.251 14.1392 368.467 13.3115 368.848 11.9565H367.588ZM373.85 14.1392C374.941 14.1392 375.879 13.6191 376.377 12.7402H376.494V14H377.695V2.96973H376.436V7.34961H376.326C375.879 6.48535 374.949 5.96533 373.85 5.96533C371.843 5.96533 370.532 7.57666 370.532 10.0522C370.532 12.5352 371.829 14.1392 373.85 14.1392ZM374.143 7.10059C375.571 7.10059 376.465 8.24316 376.465 10.0522C376.465 11.876 375.579 13.0039 374.143 13.0039C372.7 13.0039 371.836 11.8979 371.836 10.0522C371.836 8.21387 372.708 7.10059 374.143 7.10059ZM394.307 6.10449H393.04L391.487 12.418H391.37L389.604 6.10449H388.396L386.631 12.418H386.514L384.961 6.10449H383.687L385.898 14H387.173L388.931 7.8916H389.048L390.813 14H392.095L394.307 6.10449ZM396.021 14H397.28V6.10449H396.021V14ZM396.65 4.50049C397.134 4.50049 397.529 4.10498 397.529 3.62158C397.529 3.13818 397.134 2.74268 396.65 2.74268C396.167 2.74268 395.771 3.13818 395.771 3.62158C395.771 4.10498 396.167 4.50049 396.65 4.50049ZM400.21 4.06104V6.10449H398.936V7.15918H400.21V11.9492C400.21 13.458 400.862 14.0586 402.488 14.0586C402.737 14.0586 402.979 14.0293 403.228 13.9854V12.9233C402.993 12.9453 402.869 12.9526 402.642 12.9526C401.821 12.9526 401.47 12.5571 401.47 11.627V7.15918H403.228V6.10449H401.47V4.06104H400.21ZM405.205 14H406.465V9.32715C406.465 7.99414 407.241 7.10059 408.655 7.10059C409.849 7.10059 410.479 7.79639 410.479 9.19531V14H411.738V8.8877C411.738 7.03467 410.684 5.96533 409.014 5.96533C407.805 5.96533 406.978 6.47803 406.582 7.34961H406.465V2.96973H405.205V14ZM418.799 4.06104V6.10449H417.524V7.15918H418.799V11.9492C418.799 13.458 419.451 14.0586 421.077 14.0586C421.326 14.0586 421.567 14.0293 421.816 13.9854V12.9233C421.582 12.9453 421.458 12.9526 421.23 12.9526C420.41 12.9526 420.059 12.5571 420.059 11.627V7.15918H421.816V6.10449H420.059V4.06104H418.799ZM423.794 14H425.054V9.32715C425.054 7.99414 425.83 7.10059 427.244 7.10059C428.438 7.10059 429.067 7.79639 429.067 9.19531V14H430.327V8.8877C430.327 7.03467 429.272 5.96533 427.603 5.96533C426.394 5.96533 425.566 6.47803 425.171 7.34961H425.054V2.96973H423.794V14ZM435.776 7.07861C437.029 7.07861 437.864 8.00146 437.893 9.40039H433.542C433.638 8.00146 434.517 7.07861 435.776 7.07861ZM437.856 11.9565C437.527 12.6523 436.838 13.0259 435.82 13.0259C434.48 13.0259 433.608 12.0371 433.542 10.4771V10.4185H439.219V9.93506C439.219 7.48145 437.922 5.96533 435.791 5.96533C433.623 5.96533 432.231 7.57666 432.231 10.0596C432.231 12.5571 433.601 14.1392 435.791 14.1392C437.52 14.1392 438.735 13.3115 439.116 11.9565H437.856ZM7.89551 30.8135H2.66602V27.1807H7.62451V26.0088H2.66602V22.6177H7.89551V21.4312H1.34766V32H7.89551V30.8135ZM16.5088 24.1045H15.249V28.7773C15.249 30.1616 14.4873 30.9893 13.0957 30.9893C11.8359 30.9893 11.3086 30.3301 11.3086 28.9092V24.1045H10.0488V29.2168C10.0488 31.0845 10.9717 32.1392 12.7441 32.1392C13.9526 32.1392 14.7949 31.6411 15.1904 30.7622H15.3076V32H16.5088V24.1045ZM18.8818 32H20.1416V27.1074C20.1416 25.9941 21.0132 25.1885 22.2144 25.1885C22.4634 25.1885 22.9175 25.2324 23.02 25.2617V24.002C22.8589 23.98 22.5952 23.9653 22.3901 23.9653C21.3428 23.9653 20.4346 24.5073 20.2002 25.2764H20.083V24.1045H18.8818V32ZM27.6196 32.1392C29.8682 32.1392 31.2598 30.5864 31.2598 28.0522C31.2598 25.5107 29.8682 23.9653 27.6196 23.9653C25.3711 23.9653 23.9795 25.5107 23.9795 28.0522C23.9795 30.5864 25.3711 32.1392 27.6196 32.1392ZM27.6196 31.0039C26.1255 31.0039 25.2832 29.9199 25.2832 28.0522C25.2832 26.1772 26.1255 25.1006 27.6196 25.1006C29.1138 25.1006 29.9561 26.1772 29.9561 28.0522C29.9561 29.9199 29.1138 31.0039 27.6196 31.0039ZM37.0825 23.9653C36.0059 23.9653 35.061 24.5146 34.5557 25.4229H34.4385V24.1045H33.2373V34.6367H34.4971V30.8135H34.6143C35.0464 31.6484 35.9546 32.1392 37.0825 32.1392C39.0894 32.1392 40.4004 30.5205 40.4004 28.0522C40.4004 25.5693 39.0967 23.9653 37.0825 23.9653ZM36.7822 31.0039C35.3613 31.0039 34.4604 29.8613 34.4604 28.0522C34.4604 26.2358 35.3613 25.1006 36.7896 25.1006C38.2324 25.1006 39.0967 26.2065 39.0967 28.0522C39.0967 29.8979 38.2324 31.0039 36.7822 31.0039ZM45.5273 25.0786C46.7798 25.0786 47.6147 26.0015 47.644 27.4004H43.2935C43.3887 26.0015 44.2676 25.0786 45.5273 25.0786ZM47.6074 29.9565C47.2778 30.6523 46.5894 31.0259 45.5713 31.0259C44.231 31.0259 43.3594 30.0371 43.2935 28.4771V28.4185H48.9697V27.9351C48.9697 25.4814 47.6733 23.9653 45.542 23.9653C43.374 23.9653 41.9824 25.5767 41.9824 28.0596C41.9824 30.5571 43.3521 32.1392 45.542 32.1392C47.2705 32.1392 48.4863 31.3115 48.8672 29.9565H47.6074ZM53.3789 31.0332C52.4634 31.0332 51.7822 30.5645 51.7822 29.7588C51.7822 28.9678 52.3096 28.5503 53.5107 28.4697L55.6348 28.3306V29.0557C55.6348 30.1836 54.6753 31.0332 53.3789 31.0332ZM53.1445 32.1392C54.1992 32.1392 55.0635 31.6777 55.5762 30.8354H55.6934V32H56.8945V26.5947C56.8945 24.9541 55.8179 23.9653 53.8916 23.9653C52.207 23.9653 50.9619 24.8003 50.7935 26.0674H52.0679C52.2437 25.4448 52.9028 25.0859 53.8477 25.0859C55.0269 25.0859 55.6348 25.6206 55.6348 26.5947V27.3125L53.3569 27.4517C51.5186 27.5615 50.4785 28.3745 50.4785 29.7881C50.4785 31.231 51.6138 32.1392 53.1445 32.1392ZM59.2236 32H60.4834V27.3271C60.4834 25.9429 61.2964 25.1006 62.5562 25.1006C63.8159 25.1006 64.4165 25.7744 64.4165 27.1953V32H65.6763V26.8877C65.6763 25.0127 64.6875 23.9653 62.915 23.9653C61.7065 23.9653 60.9375 24.478 60.542 25.3496H60.4248V24.1045H59.2236V32ZM73.7329 21.4312H72.4146V28.3672C72.4146 30.623 73.9893 32.249 76.6113 32.249C79.2334 32.249 80.8081 30.623 80.8081 28.3672V21.4312H79.4897V28.2793C79.4897 29.876 78.4424 31.0332 76.6113 31.0332C74.7803 31.0332 73.7329 29.876 73.7329 28.2793V21.4312ZM83.3789 32H84.6387V27.3271C84.6387 25.9429 85.4517 25.1006 86.7114 25.1006C87.9712 25.1006 88.5718 25.7744 88.5718 27.1953V32H89.8315V26.8877C89.8315 25.0127 88.8428 23.9653 87.0703 23.9653C85.8618 23.9653 85.0928 24.478 84.6973 25.3496H84.5801V24.1045H83.3789V32ZM92.168 32H93.4277V24.1045H92.168V32ZM92.7979 22.5005C93.2812 22.5005 93.6768 22.105 93.6768 21.6216C93.6768 21.1382 93.2812 20.7427 92.7979 20.7427C92.3145 20.7427 91.9189 21.1382 91.9189 21.6216C91.9189 22.105 92.3145 22.5005 92.7979 22.5005ZM99.0747 32.1392C101.323 32.1392 102.715 30.5864 102.715 28.0522C102.715 25.5107 101.323 23.9653 99.0747 23.9653C96.8262 23.9653 95.4346 25.5107 95.4346 28.0522C95.4346 30.5864 96.8262 32.1392 99.0747 32.1392ZM99.0747 31.0039C97.5806 31.0039 96.7383 29.9199 96.7383 28.0522C96.7383 26.1772 97.5806 25.1006 99.0747 25.1006C100.569 25.1006 101.411 26.1772 101.411 28.0522C101.411 29.9199 100.569 31.0039 99.0747 31.0039ZM104.692 32H105.952V27.3271C105.952 25.9429 106.765 25.1006 108.025 25.1006C109.285 25.1006 109.885 25.7744 109.885 27.1953V32H111.145V26.8877C111.145 25.0127 110.156 23.9653 108.384 23.9653C107.175 23.9653 106.406 24.478 106.011 25.3496H105.894V24.1045H104.692V32ZM118.213 22.061V24.1045H116.938V25.1592H118.213V29.9492C118.213 31.458 118.865 32.0586 120.491 32.0586C120.74 32.0586 120.981 32.0293 121.23 31.9854V30.9233C120.996 30.9453 120.872 30.9526 120.645 30.9526C119.824 30.9526 119.473 30.5571 119.473 29.627V25.1592H121.23V24.1045H119.473V22.061H118.213ZM126.262 32.1392C128.511 32.1392 129.902 30.5864 129.902 28.0522C129.902 25.5107 128.511 23.9653 126.262 23.9653C124.014 23.9653 122.622 25.5107 122.622 28.0522C122.622 30.5864 124.014 32.1392 126.262 32.1392ZM126.262 31.0039C124.768 31.0039 123.926 29.9199 123.926 28.0522C123.926 26.1772 124.768 25.1006 126.262 25.1006C127.756 25.1006 128.599 26.1772 128.599 28.0522C128.599 29.9199 127.756 31.0039 126.262 31.0039ZM139.263 25.0786C140.515 25.0786 141.35 26.0015 141.379 27.4004H137.029C137.124 26.0015 138.003 25.0786 139.263 25.0786ZM141.343 29.9565C141.013 30.6523 140.325 31.0259 139.307 31.0259C137.966 31.0259 137.095 30.0371 137.029 28.4771V28.4185H142.705V27.9351C142.705 25.4814 141.409 23.9653 139.277 23.9653C137.109 23.9653 135.718 25.5767 135.718 28.0596C135.718 30.5571 137.087 32.1392 139.277 32.1392C141.006 32.1392 142.222 31.3115 142.603 29.9565H141.343ZM147.114 31.0332C146.199 31.0332 145.518 30.5645 145.518 29.7588C145.518 28.9678 146.045 28.5503 147.246 28.4697L149.37 28.3306V29.0557C149.37 30.1836 148.411 31.0332 147.114 31.0332ZM146.88 32.1392C147.935 32.1392 148.799 31.6777 149.312 30.8354H149.429V32H150.63V26.5947C150.63 24.9541 149.553 23.9653 147.627 23.9653C145.942 23.9653 144.697 24.8003 144.529 26.0674H145.803C145.979 25.4448 146.638 25.0859 147.583 25.0859C148.762 25.0859 149.37 25.6206 149.37 26.5947V27.3125L147.092 27.4517C145.254 27.5615 144.214 28.3745 144.214 29.7881C144.214 31.231 145.349 32.1392 146.88 32.1392ZM152.776 26.2651C152.776 27.4077 153.45 28.0449 154.929 28.4038L156.284 28.7334C157.126 28.9385 157.537 29.3047 157.537 29.8467C157.537 30.5718 156.775 31.0771 155.713 31.0771C154.702 31.0771 154.072 30.6523 153.86 29.9858H152.563C152.703 31.2969 153.911 32.1392 155.669 32.1392C157.463 32.1392 158.833 31.165 158.833 29.7515C158.833 28.6162 158.115 27.9717 156.628 27.6128L155.413 27.3198C154.482 27.0928 154.043 26.7559 154.043 26.2139C154.043 25.5107 154.775 25.0347 155.713 25.0347C156.665 25.0347 157.28 25.4521 157.449 26.082H158.694C158.525 24.7856 157.375 23.9653 155.72 23.9653C154.043 23.9653 152.776 24.9541 152.776 26.2651ZM163.96 25.0786C165.212 25.0786 166.047 26.0015 166.077 27.4004H161.726C161.821 26.0015 162.7 25.0786 163.96 25.0786ZM166.04 29.9565C165.71 30.6523 165.022 31.0259 164.004 31.0259C162.664 31.0259 161.792 30.0371 161.726 28.4771V28.4185H167.402V27.9351C167.402 25.4814 166.106 23.9653 163.975 23.9653C161.807 23.9653 160.415 25.5767 160.415 28.0596C160.415 30.5571 161.785 32.1392 163.975 32.1392C165.703 32.1392 166.919 31.3115 167.3 29.9565H166.04ZM177.839 32V22.6177H181.245V21.4312H173.115V22.6177H176.521V32H177.839ZM182.021 32H183.281V27.1074C183.281 25.9941 184.153 25.1885 185.354 25.1885C185.603 25.1885 186.057 25.2324 186.16 25.2617V24.002C185.999 23.98 185.735 23.9653 185.53 23.9653C184.482 23.9653 183.574 24.5073 183.34 25.2764H183.223V24.1045H182.021V32ZM194.121 24.1045H192.861V28.7773C192.861 30.1616 192.1 30.9893 190.708 30.9893C189.448 30.9893 188.921 30.3301 188.921 28.9092V24.1045H187.661V29.2168C187.661 31.0845 188.584 32.1392 190.356 32.1392C191.565 32.1392 192.407 31.6411 192.803 30.7622H192.92V32H194.121V24.1045ZM196.494 32H197.754V27.1074C197.754 25.9941 198.552 25.1006 199.585 25.1006C200.581 25.1006 201.233 25.7012 201.233 26.6387V32H202.493V26.9243C202.493 25.9209 203.225 25.1006 204.324 25.1006C205.437 25.1006 205.986 25.6719 205.986 26.8364V32H207.246V26.5435C207.246 24.8882 206.345 23.9653 204.734 23.9653C203.643 23.9653 202.742 24.5146 202.317 25.3496H202.2C201.833 24.5293 201.086 23.9653 200.017 23.9653C198.962 23.9653 198.171 24.4707 197.812 25.3496H197.695V24.1045H196.494V32ZM213.391 23.9653C212.314 23.9653 211.37 24.5146 210.864 25.4229H210.747V24.1045H209.546V34.6367H210.806V30.8135H210.923C211.355 31.6484 212.263 32.1392 213.391 32.1392C215.398 32.1392 216.709 30.5205 216.709 28.0522C216.709 25.5693 215.405 23.9653 213.391 23.9653ZM213.091 31.0039C211.67 31.0039 210.769 29.8613 210.769 28.0522C210.769 26.2358 211.67 25.1006 213.098 25.1006C214.541 25.1006 215.405 26.2065 215.405 28.0522C215.405 29.8979 214.541 31.0039 213.091 31.0039ZM223.44 28.3452V27.1514H218.635V28.3452H223.44ZM228.911 25.0786C230.164 25.0786 230.999 26.0015 231.028 27.4004H226.677C226.772 26.0015 227.651 25.0786 228.911 25.0786ZM230.991 29.9565C230.662 30.6523 229.973 31.0259 228.955 31.0259C227.615 31.0259 226.743 30.0371 226.677 28.4771V28.4185H232.354V27.9351C232.354 25.4814 231.057 23.9653 228.926 23.9653C226.758 23.9653 225.366 25.5767 225.366 28.0596C225.366 30.5571 226.736 32.1392 228.926 32.1392C230.654 32.1392 231.87 31.3115 232.251 29.9565H230.991ZM234.331 32H235.591V27.1074C235.591 25.9941 236.462 25.1885 237.664 25.1885C237.913 25.1885 238.367 25.2324 238.469 25.2617V24.002C238.308 23.98 238.044 23.9653 237.839 23.9653C236.792 23.9653 235.884 24.5073 235.649 25.2764H235.532V24.1045H234.331V32ZM242.476 31.0332C241.56 31.0332 240.879 30.5645 240.879 29.7588C240.879 28.9678 241.406 28.5503 242.607 28.4697L244.731 28.3306V29.0557C244.731 30.1836 243.772 31.0332 242.476 31.0332ZM242.241 32.1392C243.296 32.1392 244.16 31.6777 244.673 30.8354H244.79V32H245.991V26.5947C245.991 24.9541 244.915 23.9653 242.988 23.9653C241.304 23.9653 240.059 24.8003 239.89 26.0674H241.165C241.34 25.4448 242 25.0859 242.944 25.0859C244.124 25.0859 244.731 25.6206 244.731 26.5947V27.3125L242.454 27.4517C240.615 27.5615 239.575 28.3745 239.575 29.7881C239.575 31.231 240.71 32.1392 242.241 32.1392ZM253.081 22.061V24.1045H251.807V25.1592H253.081V29.9492C253.081 31.458 253.733 32.0586 255.359 32.0586C255.608 32.0586 255.85 32.0293 256.099 31.9854V30.9233C255.864 30.9453 255.74 30.9526 255.513 30.9526C254.692 30.9526 254.341 30.5571 254.341 29.627V25.1592H256.099V24.1045H254.341V22.061H253.081ZM260.435 31.0332C259.519 31.0332 258.838 30.5645 258.838 29.7588C258.838 28.9678 259.365 28.5503 260.566 28.4697L262.69 28.3306V29.0557C262.69 30.1836 261.731 31.0332 260.435 31.0332ZM260.2 32.1392C261.255 32.1392 262.119 31.6777 262.632 30.8354H262.749V32H263.95V26.5947C263.95 24.9541 262.874 23.9653 260.947 23.9653C259.263 23.9653 258.018 24.8003 257.849 26.0674H259.124C259.299 25.4448 259.958 25.0859 260.903 25.0859C262.083 25.0859 262.69 25.6206 262.69 26.5947V27.3125L260.413 27.4517C258.574 27.5615 257.534 28.3745 257.534 29.7881C257.534 31.231 258.669 32.1392 260.2 32.1392ZM266.279 32H267.539V27.1074C267.539 25.9941 268.411 25.1885 269.612 25.1885C269.861 25.1885 270.315 25.2324 270.417 25.2617V24.002C270.256 23.98 269.993 23.9653 269.788 23.9653C268.74 23.9653 267.832 24.5073 267.598 25.2764H267.48V24.1045H266.279V32ZM272.021 32H273.281V24.1045H272.021V32ZM272.651 22.5005C273.135 22.5005 273.53 22.105 273.53 21.6216C273.53 21.1382 273.135 20.7427 272.651 20.7427C272.168 20.7427 271.772 21.1382 271.772 21.6216C271.772 22.105 272.168 22.5005 272.651 22.5005ZM276.211 32H277.471V25.1592H279.28V24.1045H277.471V23.2622C277.471 22.3979 277.852 21.9585 278.76 21.9585C278.987 21.9585 279.199 21.9658 279.353 21.9951V20.9697C279.089 20.9185 278.811 20.8965 278.503 20.8965C277.002 20.8965 276.211 21.6509 276.211 23.2256V24.1045H274.9V25.1592H276.211V32ZM281.646 32H282.905V25.1592H284.714V24.1045H282.905V23.2622C282.905 22.3979 283.286 21.9585 284.194 21.9585C284.421 21.9585 284.634 21.9658 284.788 21.9951V20.9697C284.524 20.9185 284.246 20.8965 283.938 20.8965C282.437 20.8965 281.646 21.6509 281.646 23.2256V24.1045H280.334V25.1592H281.646V32ZM286.003 26.2651C286.003 27.4077 286.677 28.0449 288.157 28.4038L289.512 28.7334C290.354 28.9385 290.764 29.3047 290.764 29.8467C290.764 30.5718 290.002 31.0771 288.94 31.0771C287.93 31.0771 287.3 30.6523 287.087 29.9858H285.791C285.93 31.2969 287.139 32.1392 288.896 32.1392C290.691 32.1392 292.061 31.165 292.061 29.7515C292.061 28.6162 291.343 27.9717 289.856 27.6128L288.64 27.3198C287.71 27.0928 287.271 26.7559 287.271 26.2139C287.271 25.5107 288.003 25.0347 288.94 25.0347C289.893 25.0347 290.508 25.4521 290.676 26.082H291.921C291.753 24.7856 290.603 23.9653 288.948 23.9653C287.271 23.9653 286.003 24.9541 286.003 26.2651ZM301.516 32.1392C303.765 32.1392 305.156 30.5864 305.156 28.0522C305.156 25.5107 303.765 23.9653 301.516 23.9653C299.268 23.9653 297.876 25.5107 297.876 28.0522C297.876 30.5864 299.268 32.1392 301.516 32.1392ZM301.516 31.0039C300.022 31.0039 299.18 29.9199 299.18 28.0522C299.18 26.1772 300.022 25.1006 301.516 25.1006C303.01 25.1006 303.853 26.1772 303.853 28.0522C303.853 29.9199 303.01 31.0039 301.516 31.0039ZM307.134 32H308.394V27.3271C308.394 25.9429 309.207 25.1006 310.466 25.1006C311.726 25.1006 312.327 25.7744 312.327 27.1953V32H313.586V26.8877C313.586 25.0127 312.598 23.9653 310.825 23.9653C309.617 23.9653 308.848 24.478 308.452 25.3496H308.335V24.1045H307.134V32ZM322.559 31.0332C321.643 31.0332 320.962 30.5645 320.962 29.7588C320.962 28.9678 321.489 28.5503 322.69 28.4697L324.814 28.3306V29.0557C324.814 30.1836 323.855 31.0332 322.559 31.0332ZM322.324 32.1392C323.379 32.1392 324.243 31.6777 324.756 30.8354H324.873V32H326.074V26.5947C326.074 24.9541 324.998 23.9653 323.071 23.9653C321.387 23.9653 320.142 24.8003 319.973 26.0674H321.248C321.423 25.4448 322.083 25.0859 323.027 25.0859C324.207 25.0859 324.814 25.6206 324.814 26.5947V27.3125L322.537 27.4517C320.698 27.5615 319.658 28.3745 319.658 29.7881C319.658 31.231 320.793 32.1392 322.324 32.1392ZM328.477 32H329.736V20.9697H328.477V32ZM338.569 24.1045H337.31V28.7773C337.31 30.1616 336.548 30.9893 335.156 30.9893C333.896 30.9893 333.369 30.3301 333.369 28.9092V24.1045H332.109V29.2168C332.109 31.0845 333.032 32.1392 334.805 32.1392C336.013 32.1392 336.855 31.6411 337.251 30.7622H337.368V32H338.569V24.1045ZM340.942 32H342.202V27.1074C342.202 25.9941 343 25.1006 344.033 25.1006C345.029 25.1006 345.681 25.7012 345.681 26.6387V32H346.941V26.9243C346.941 25.9209 347.673 25.1006 348.772 25.1006C349.885 25.1006 350.435 25.6719 350.435 26.8364V32H351.694V26.5435C351.694 24.8882 350.793 23.9653 349.182 23.9653C348.091 23.9653 347.19 24.5146 346.765 25.3496H346.648C346.282 24.5293 345.535 23.9653 344.465 23.9653C343.411 23.9653 342.62 24.4707 342.261 25.3496H342.144V24.1045H340.942V32ZM354.023 32H355.283V24.1045H354.023V32ZM354.653 22.5005C355.137 22.5005 355.532 22.105 355.532 21.6216C355.532 21.1382 355.137 20.7427 354.653 20.7427C354.17 20.7427 353.774 21.1382 353.774 21.6216C353.774 22.105 354.17 22.5005 354.653 22.5005ZM357.686 32H358.945V27.3271C358.945 25.9429 359.758 25.1006 361.018 25.1006C362.278 25.1006 362.878 25.7744 362.878 27.1953V32H364.138V26.8877C364.138 25.0127 363.149 23.9653 361.377 23.9653C360.168 23.9653 359.399 24.478 359.004 25.3496H358.887V24.1045H357.686V32ZM372.832 24.1045H371.572V28.7773C371.572 30.1616 370.811 30.9893 369.419 30.9893C368.159 30.9893 367.632 30.3301 367.632 28.9092V24.1045H366.372V29.2168C366.372 31.0845 367.295 32.1392 369.067 32.1392C370.276 32.1392 371.118 31.6411 371.514 30.7622H371.631V32H372.832V24.1045ZM375.205 32H376.465V27.1074C376.465 25.9941 377.263 25.1006 378.296 25.1006C379.292 25.1006 379.944 25.7012 379.944 26.6387V32H381.204V26.9243C381.204 25.9209 381.936 25.1006 383.035 25.1006C384.148 25.1006 384.697 25.6719 384.697 26.8364V32H385.957V26.5435C385.957 24.8882 385.056 23.9653 383.445 23.9653C382.354 23.9653 381.453 24.5146 381.028 25.3496H380.911C380.544 24.5293 379.797 23.9653 378.728 23.9653C377.673 23.9653 376.882 24.4707 376.523 25.3496H376.406V24.1045H375.205V32ZM394.922 31.0332C394.006 31.0332 393.325 30.5645 393.325 29.7588C393.325 28.9678 393.853 28.5503 395.054 28.4697L397.178 28.3306V29.0557C397.178 30.1836 396.218 31.0332 394.922 31.0332ZM394.688 32.1392C395.742 32.1392 396.606 31.6777 397.119 30.8354H397.236V32H398.438V26.5947C398.438 24.9541 397.361 23.9653 395.435 23.9653C393.75 23.9653 392.505 24.8003 392.336 26.0674H393.611C393.787 25.4448 394.446 25.0859 395.391 25.0859C396.57 25.0859 397.178 25.6206 397.178 26.5947V27.3125L394.9 27.4517C393.062 27.5615 392.021 28.3745 392.021 29.7881C392.021 31.231 393.157 32.1392 394.688 32.1392ZM400.767 32H402.026V27.3271C402.026 25.9429 402.839 25.1006 404.099 25.1006C405.359 25.1006 405.959 25.7744 405.959 27.1953V32H407.219V26.8877C407.219 25.0127 406.23 23.9653 404.458 23.9653C403.25 23.9653 402.48 24.478 402.085 25.3496H401.968V24.1045H400.767V32ZM412.449 32.1392C413.54 32.1392 414.478 31.6191 414.976 30.7402H415.093V32H416.294V20.9697H415.034V25.3496H414.924C414.478 24.4854 413.547 23.9653 412.449 23.9653C410.442 23.9653 409.131 25.5767 409.131 28.0522C409.131 30.5352 410.427 32.1392 412.449 32.1392ZM412.742 25.1006C414.17 25.1006 415.063 26.2432 415.063 28.0522C415.063 29.876 414.177 31.0039 412.742 31.0039C411.299 31.0039 410.435 29.8979 410.435 28.0522C410.435 26.2139 411.306 25.1006 412.742 25.1006ZM422.791 26.2651C422.791 27.4077 423.464 28.0449 424.944 28.4038L426.299 28.7334C427.141 28.9385 427.551 29.3047 427.551 29.8467C427.551 30.5718 426.79 31.0771 425.728 31.0771C424.717 31.0771 424.087 30.6523 423.875 29.9858H422.578C422.717 31.2969 423.926 32.1392 425.684 32.1392C427.478 32.1392 428.848 31.165 428.848 29.7515C428.848 28.6162 428.13 27.9717 426.643 27.6128L425.427 27.3198C424.497 27.0928 424.058 26.7559 424.058 26.2139C424.058 25.5107 424.79 25.0347 425.728 25.0347C426.68 25.0347 427.295 25.4521 427.463 26.082H428.708C428.54 24.7856 427.39 23.9653 425.735 23.9653C424.058 23.9653 422.791 24.9541 422.791 26.2651ZM431.279 22.061V24.1045H430.005V25.1592H431.279V29.9492C431.279 31.458 431.931 32.0586 433.557 32.0586C433.806 32.0586 434.048 32.0293 434.297 31.9854V30.9233C434.062 30.9453 433.938 30.9526 433.711 30.9526C432.891 30.9526 432.539 30.5571 432.539 29.627V25.1592H434.297V24.1045H432.539V22.061H431.279ZM439.233 25.0786C440.486 25.0786 441.321 26.0015 441.35 27.4004H437C437.095 26.0015 437.974 25.0786 439.233 25.0786ZM441.313 29.9565C440.984 30.6523 440.295 31.0259 439.277 31.0259C437.937 31.0259 437.065 30.0371 437 28.4771V28.4185H442.676V27.9351C442.676 25.4814 441.379 23.9653 439.248 23.9653C437.08 23.9653 435.688 25.5767 435.688 28.0596C435.688 30.5571 437.058 32.1392 439.248 32.1392C440.977 32.1392 442.192 31.3115 442.573 29.9565H441.313ZM447.803 25.0786C449.055 25.0786 449.89 26.0015 449.919 27.4004H445.569C445.664 26.0015 446.543 25.0786 447.803 25.0786ZM449.883 29.9565C449.553 30.6523 448.865 31.0259 447.847 31.0259C446.506 31.0259 445.635 30.0371 445.569 28.4771V28.4185H451.245V27.9351C451.245 25.4814 449.949 23.9653 447.817 23.9653C445.649 23.9653 444.258 25.5767 444.258 28.0596C444.258 30.5571 445.627 32.1392 447.817 32.1392C449.546 32.1392 450.762 31.3115 451.143 29.9565H449.883ZM453.296 32H454.556V20.9697H453.296V32ZM463.667 31.0332C462.751 31.0332 462.07 30.5645 462.07 29.7588C462.07 28.9678 462.598 28.5503 463.799 28.4697L465.923 28.3306V29.0557C465.923 30.1836 464.963 31.0332 463.667 31.0332ZM463.433 32.1392C464.487 32.1392 465.352 31.6777 465.864 30.8354H465.981V32H467.183V26.5947C467.183 24.9541 466.106 23.9653 464.18 23.9653C462.495 23.9653 461.25 24.8003 461.082 26.0674H462.356C462.532 25.4448 463.191 25.0859 464.136 25.0859C465.315 25.0859 465.923 25.6206 465.923 26.5947V27.3125L463.645 27.4517C461.807 27.5615 460.767 28.3745 460.767 29.7881C460.767 31.231 461.902 32.1392 463.433 32.1392ZM469.329 26.2651C469.329 27.4077 470.002 28.0449 471.482 28.4038L472.837 28.7334C473.679 28.9385 474.089 29.3047 474.089 29.8467C474.089 30.5718 473.328 31.0771 472.266 31.0771C471.255 31.0771 470.625 30.6523 470.413 29.9858H469.116C469.255 31.2969 470.464 32.1392 472.222 32.1392C474.016 32.1392 475.386 31.165 475.386 29.7515C475.386 28.6162 474.668 27.9717 473.181 27.6128L471.965 27.3198C471.035 27.0928 470.596 26.7559 470.596 26.2139C470.596 25.5107 471.328 25.0347 472.266 25.0347C473.218 25.0347 473.833 25.4521 474.001 26.082H475.247C475.078 24.7856 473.928 23.9653 472.273 23.9653C470.596 23.9653 469.329 24.9541 469.329 26.2651ZM484.028 31.0332C483.113 31.0332 482.432 30.5645 482.432 29.7588C482.432 28.9678 482.959 28.5503 484.16 28.4697L486.284 28.3306V29.0557C486.284 30.1836 485.325 31.0332 484.028 31.0332ZM483.794 32.1392C484.849 32.1392 485.713 31.6777 486.226 30.8354H486.343V32H487.544V26.5947C487.544 24.9541 486.467 23.9653 484.541 23.9653C482.856 23.9653 481.611 24.8003 481.443 26.0674H482.717C482.893 25.4448 483.552 25.0859 484.497 25.0859C485.676 25.0859 486.284 25.6206 486.284 26.5947V27.3125L484.006 27.4517C482.168 27.5615 481.128 28.3745 481.128 29.7881C481.128 31.231 482.263 32.1392 483.794 32.1392ZM2.48291 43.3789V39.4312H1.31104V43.3789H2.48291ZM5.24414 43.3789V39.4312H4.07227V43.3789H5.24414ZM7.74902 50H9.00879V45.1074C9.00879 43.9941 9.80713 43.1006 10.8398 43.1006C11.8359 43.1006 12.4878 43.7012 12.4878 44.6387V50H13.7476V44.9243C13.7476 43.9209 14.48 43.1006 15.5786 43.1006C16.6919 43.1006 17.2412 43.6719 17.2412 44.8364V50H18.501V44.5435C18.501 42.8882 17.6001 41.9653 15.9888 41.9653C14.8975 41.9653 13.9966 42.5146 13.5718 43.3496H13.4546C13.0884 42.5293 12.3413 41.9653 11.272 41.9653C10.2173 41.9653 9.42627 42.4707 9.06738 43.3496H8.9502V42.1045H7.74902V50ZM23.2324 49.0332C22.3169 49.0332 21.6357 48.5645 21.6357 47.7588C21.6357 46.9678 22.1631 46.5503 23.3643 46.4697L25.4883 46.3306V47.0557C25.4883 48.1836 24.5288 49.0332 23.2324 49.0332ZM22.998 50.1392C24.0527 50.1392 24.917 49.6777 25.4297 48.8354H25.5469V50H26.748V44.5947C26.748 42.9541 25.6714 41.9653 23.7451 41.9653C22.0605 41.9653 20.8154 42.8003 20.647 44.0674H21.9214C22.0972 43.4448 22.7563 43.0859 23.7012 43.0859C24.8804 43.0859 25.4883 43.6206 25.4883 44.5947V45.3125L23.2104 45.4517C21.3721 45.5615 20.332 46.3745 20.332 47.7881C20.332 49.231 21.4673 50.1392 22.998 50.1392ZM30.3662 42.1045H29.1064V50.4102C29.1064 51.2817 28.8135 51.6333 27.9199 51.6333H27.7295V52.71H27.9492C29.6045 52.71 30.3662 52.0142 30.3662 50.3882V42.1045ZM29.7363 40.5005C30.2197 40.5005 30.6152 40.105 30.6152 39.6216C30.6152 39.1382 30.2197 38.7427 29.7363 38.7427C29.2529 38.7427 28.8574 39.1382 28.8574 39.6216C28.8574 40.105 29.2529 40.5005 29.7363 40.5005ZM36.0132 50.1392C38.2617 50.1392 39.6533 48.5864 39.6533 46.0522C39.6533 43.5107 38.2617 41.9653 36.0132 41.9653C33.7646 41.9653 32.373 43.5107 32.373 46.0522C32.373 48.5864 33.7646 50.1392 36.0132 50.1392ZM36.0132 49.0039C34.519 49.0039 33.6768 47.9199 33.6768 46.0522C33.6768 44.1772 34.519 43.1006 36.0132 43.1006C37.5073 43.1006 38.3496 44.1772 38.3496 46.0522C38.3496 47.9199 37.5073 49.0039 36.0132 49.0039ZM41.6309 50H42.8906V45.1074C42.8906 43.9941 43.7622 43.1885 44.9634 43.1885C45.2124 43.1885 45.6665 43.2324 45.769 43.2617V42.002C45.6079 41.98 45.3442 41.9653 45.1392 41.9653C44.0918 41.9653 43.1836 42.5073 42.9492 43.2764H42.832V42.1045H41.6309V50ZM55.5029 50.1392C57.5024 50.1392 58.8135 48.5205 58.8135 46.0522C58.8135 43.5693 57.5098 41.9653 55.5029 41.9653C54.4189 41.9653 53.4595 42.5 53.0273 43.3496H52.9102V38.9697H51.6504V50H52.8516V48.7402H52.9688C53.4668 49.6191 54.4043 50.1392 55.5029 50.1392ZM55.21 43.1006C56.6528 43.1006 57.5098 44.2065 57.5098 46.0522C57.5098 47.8979 56.6528 49.0039 55.21 49.0039C53.7744 49.0039 52.8809 47.876 52.8809 46.0522C52.8809 44.2285 53.7744 43.1006 55.21 43.1006ZM60.791 50H62.0508V45.1074C62.0508 43.9941 62.9224 43.1885 64.1235 43.1885C64.3726 43.1885 64.8267 43.2324 64.9292 43.2617V42.002C64.7681 41.98 64.5044 41.9653 64.2993 41.9653C63.252 41.9653 62.3438 42.5073 62.1094 43.2764H61.9922V42.1045H60.791V50ZM69.4336 43.0786C70.686 43.0786 71.521 44.0015 71.5503 45.4004H67.1997C67.2949 44.0015 68.1738 43.0786 69.4336 43.0786ZM71.5137 47.9565C71.1841 48.6523 70.4956 49.0259 69.4775 49.0259C68.1372 49.0259 67.2656 48.0371 67.1997 46.4771V46.4185H72.876V45.9351C72.876 43.4814 71.5796 41.9653 69.4482 41.9653C67.2803 41.9653 65.8887 43.5767 65.8887 46.0596C65.8887 48.5571 67.2583 50.1392 69.4482 50.1392C71.1768 50.1392 72.3926 49.3115 72.7734 47.9565H71.5137ZM77.2852 49.0332C76.3696 49.0332 75.6885 48.5645 75.6885 47.7588C75.6885 46.9678 76.2158 46.5503 77.417 46.4697L79.541 46.3306V47.0557C79.541 48.1836 78.5815 49.0332 77.2852 49.0332ZM77.0508 50.1392C78.1055 50.1392 78.9697 49.6777 79.4824 48.8354H79.5996V50H80.8008V44.5947C80.8008 42.9541 79.7241 41.9653 77.7979 41.9653C76.1133 41.9653 74.8682 42.8003 74.6997 44.0674H75.9741C76.1499 43.4448 76.8091 43.0859 77.7539 43.0859C78.9331 43.0859 79.541 43.6206 79.541 44.5947V45.3125L77.2632 45.4517C75.4248 45.5615 74.3848 46.3745 74.3848 47.7881C74.3848 49.231 75.52 50.1392 77.0508 50.1392ZM84.5801 45.5542H84.4629V38.9697H83.2031V50H84.4629V47.0044L85.2173 46.3013L88.1763 50H89.7803L86.1548 45.4883L89.5532 42.1045H88.0078L84.5801 45.5542ZM91.8018 40.061V42.1045H90.5273V43.1592H91.8018V47.9492C91.8018 49.458 92.4536 50.0586 94.0796 50.0586C94.3286 50.0586 94.5703 50.0293 94.8193 49.9854V48.9233C94.585 48.9453 94.4604 48.9526 94.2334 48.9526C93.4131 48.9526 93.0615 48.5571 93.0615 47.627V43.1592H94.8193V42.1045H93.0615V40.061H91.8018ZM96.7969 50H98.0566V45.3271C98.0566 43.9941 98.833 43.1006 100.247 43.1006C101.44 43.1006 102.07 43.7964 102.07 45.1953V50H103.33V44.8877C103.33 43.0347 102.275 41.9653 100.605 41.9653C99.397 41.9653 98.5693 42.478 98.1738 43.3496H98.0566V38.9697H96.7969V50ZM105.63 50H106.89V45.1074C106.89 43.9941 107.761 43.1885 108.962 43.1885C109.211 43.1885 109.666 43.2324 109.768 43.2617V42.002C109.607 41.98 109.343 41.9653 109.138 41.9653C108.091 41.9653 107.183 42.5073 106.948 43.2764H106.831V42.1045H105.63V50ZM114.368 50.1392C116.616 50.1392 118.008 48.5864 118.008 46.0522C118.008 43.5107 116.616 41.9653 114.368 41.9653C112.119 41.9653 110.728 43.5107 110.728 46.0522C110.728 48.5864 112.119 50.1392 114.368 50.1392ZM114.368 49.0039C112.874 49.0039 112.031 47.9199 112.031 46.0522C112.031 44.1772 112.874 43.1006 114.368 43.1006C115.862 43.1006 116.704 44.1772 116.704 46.0522C116.704 47.9199 115.862 49.0039 114.368 49.0039ZM126.372 42.1045H125.112V46.7773C125.112 48.1616 124.351 48.9893 122.959 48.9893C121.699 48.9893 121.172 48.3301 121.172 46.9092V42.1045H119.912V47.2168C119.912 49.0845 120.835 50.1392 122.607 50.1392C123.816 50.1392 124.658 49.6411 125.054 48.7622H125.171V50H126.372V42.1045ZM131.938 48.7695C130.474 48.7695 129.653 47.6562 129.653 45.9351C129.653 44.2139 130.474 43.1006 131.938 43.1006C133.396 43.1006 134.282 44.2139 134.282 45.9351C134.282 47.6562 133.403 48.7695 131.938 48.7695ZM131.997 53.0322C134.15 53.0322 135.513 51.9043 135.513 50.1392V42.1045H134.312V43.3569H134.194C133.74 42.5073 132.766 41.9653 131.66 41.9653C129.631 41.9653 128.35 43.5693 128.35 45.9351C128.35 48.3008 129.617 49.8828 131.66 49.8828C132.744 49.8828 133.638 49.3921 134.136 48.5205H134.253V50.0732C134.253 51.2378 133.411 51.9336 131.997 51.9336C130.862 51.9336 130.159 51.5161 130.02 50.8716H128.687C128.877 52.1753 130.093 53.0322 131.997 53.0322ZM137.959 50H139.219V45.3271C139.219 43.9941 139.995 43.1006 141.409 43.1006C142.603 43.1006 143.232 43.7964 143.232 45.1953V50H144.492V44.8877C144.492 43.0347 143.438 41.9653 141.768 41.9653C140.559 41.9653 139.731 42.478 139.336 43.3496H139.219V38.9697H137.959V50ZM148.088 43.3789V39.4312H146.917V43.3789H148.088ZM150.85 43.3789V39.4312H149.678V43.3789H150.85ZM158.115 40.061V42.1045H156.841V43.1592H158.115V47.9492C158.115 49.458 158.767 50.0586 160.393 50.0586C160.642 50.0586 160.884 50.0293 161.133 49.9854V48.9233C160.898 48.9453 160.774 48.9526 160.547 48.9526C159.727 48.9526 159.375 48.5571 159.375 47.627V43.1592H161.133V42.1045H159.375V40.061H158.115ZM163.11 50H164.37V45.3271C164.37 43.9941 165.146 43.1006 166.56 43.1006C167.754 43.1006 168.384 43.7964 168.384 45.1953V50H169.644V44.8877C169.644 43.0347 168.589 41.9653 166.919 41.9653C165.71 41.9653 164.883 42.478 164.487 43.3496H164.37V38.9697H163.11V50ZM174.375 49.0332C173.459 49.0332 172.778 48.5645 172.778 47.7588C172.778 46.9678 173.306 46.5503 174.507 46.4697L176.631 46.3306V47.0557C176.631 48.1836 175.671 49.0332 174.375 49.0332ZM174.141 50.1392C175.195 50.1392 176.06 49.6777 176.572 48.8354H176.689V50H177.891V44.5947C177.891 42.9541 176.814 41.9653 174.888 41.9653C173.203 41.9653 171.958 42.8003 171.79 44.0674H173.064C173.24 43.4448 173.899 43.0859 174.844 43.0859C176.023 43.0859 176.631 43.6206 176.631 44.5947V45.3125L174.353 45.4517C172.515 45.5615 171.475 46.3745 171.475 47.7881C171.475 49.231 172.61 50.1392 174.141 50.1392ZM180.747 40.061V42.1045H179.473V43.1592H180.747V47.9492C180.747 49.458 181.399 50.0586 183.025 50.0586C183.274 50.0586 183.516 50.0293 183.765 49.9854V48.9233C183.53 48.9453 183.406 48.9526 183.179 48.9526C182.358 48.9526 182.007 48.5571 182.007 47.627V43.1592H183.765V42.1045H182.007V40.061H180.747ZM199.834 42.1045H198.567L197.014 48.418H196.897L195.132 42.1045H193.923L192.158 48.418H192.041L190.488 42.1045H189.214L191.426 50H192.7L194.458 43.8916H194.575L196.34 50H197.622L199.834 42.1045ZM204.47 50.1392C206.719 50.1392 208.11 48.5864 208.11 46.0522C208.11 43.5107 206.719 41.9653 204.47 41.9653C202.222 41.9653 200.83 43.5107 200.83 46.0522C200.83 48.5864 202.222 50.1392 204.47 50.1392ZM204.47 49.0039C202.976 49.0039 202.134 47.9199 202.134 46.0522C202.134 44.1772 202.976 43.1006 204.47 43.1006C205.964 43.1006 206.807 44.1772 206.807 46.0522C206.807 47.9199 205.964 49.0039 204.47 49.0039ZM216.475 42.1045H215.215V46.7773C215.215 48.1616 214.453 48.9893 213.062 48.9893C211.802 48.9893 211.274 48.3301 211.274 46.9092V42.1045H210.015V47.2168C210.015 49.0845 210.938 50.1392 212.71 50.1392C213.918 50.1392 214.761 49.6411 215.156 48.7622H215.273V50H216.475V42.1045ZM218.921 50H220.181V38.9697H218.921V50ZM225.549 50.1392C226.641 50.1392 227.578 49.6191 228.076 48.7402H228.193V50H229.395V38.9697H228.135V43.3496H228.025C227.578 42.4854 226.648 41.9653 225.549 41.9653C223.542 41.9653 222.231 43.5767 222.231 46.0522C222.231 48.5352 223.528 50.1392 225.549 50.1392ZM225.842 43.1006C227.271 43.1006 228.164 44.2432 228.164 46.0522C228.164 47.876 227.278 49.0039 225.842 49.0039C224.399 49.0039 223.535 47.8979 223.535 46.0522C223.535 44.2139 224.407 43.1006 225.842 43.1006ZM235.891 44.2651C235.891 45.4077 236.565 46.0449 238.044 46.4038L239.399 46.7334C240.242 46.9385 240.652 47.3047 240.652 47.8467C240.652 48.5718 239.89 49.0771 238.828 49.0771C237.817 49.0771 237.188 48.6523 236.975 47.9858H235.679C235.818 49.2969 237.026 50.1392 238.784 50.1392C240.579 50.1392 241.948 49.165 241.948 47.7515C241.948 46.6162 241.23 45.9717 239.744 45.6128L238.528 45.3198C237.598 45.0928 237.158 44.7559 237.158 44.2139C237.158 43.5107 237.891 43.0347 238.828 43.0347C239.78 43.0347 240.396 43.4521 240.564 44.082H241.809C241.641 42.7856 240.491 41.9653 238.835 41.9653C237.158 41.9653 235.891 42.9541 235.891 44.2651ZM247.075 43.0786C248.328 43.0786 249.163 44.0015 249.192 45.4004H244.841C244.937 44.0015 245.815 43.0786 247.075 43.0786ZM249.155 47.9565C248.826 48.6523 248.137 49.0259 247.119 49.0259C245.779 49.0259 244.907 48.0371 244.841 46.4771V46.4185H250.518V45.9351C250.518 43.4814 249.221 41.9653 247.09 41.9653C244.922 41.9653 243.53 43.5767 243.53 46.0596C243.53 48.5571 244.9 50.1392 247.09 50.1392C248.818 50.1392 250.034 49.3115 250.415 47.9565H249.155ZM252.495 50H253.755V45.1074C253.755 43.9941 254.626 43.1885 255.828 43.1885C256.077 43.1885 256.531 43.2324 256.633 43.2617V42.002C256.472 41.98 256.208 41.9653 256.003 41.9653C254.956 41.9653 254.048 42.5073 253.813 43.2764H253.696V42.1045H252.495V50ZM264.653 42.1045H263.306L261.145 48.6084H261.028L258.867 42.1045H257.52L260.442 50H261.731L264.653 42.1045ZM269.194 43.0786C270.447 43.0786 271.282 44.0015 271.311 45.4004H266.96C267.056 44.0015 267.935 43.0786 269.194 43.0786ZM271.274 47.9565C270.945 48.6523 270.256 49.0259 269.238 49.0259C267.898 49.0259 267.026 48.0371 266.96 46.4771V46.4185H272.637V45.9351C272.637 43.4814 271.34 41.9653 269.209 41.9653C267.041 41.9653 265.649 43.5767 265.649 46.0596C265.649 48.5571 267.019 50.1392 269.209 50.1392C270.938 50.1392 272.153 49.3115 272.534 47.9565H271.274ZM279.375 40.061V42.1045H278.101V43.1592H279.375V47.9492C279.375 49.458 280.027 50.0586 281.653 50.0586C281.902 50.0586 282.144 50.0293 282.393 49.9854V48.9233C282.158 48.9453 282.034 48.9526 281.807 48.9526C280.986 48.9526 280.635 48.5571 280.635 47.627V43.1592H282.393V42.1045H280.635V40.061H279.375ZM287.424 50.1392C289.673 50.1392 291.064 48.5864 291.064 46.0522C291.064 43.5107 289.673 41.9653 287.424 41.9653C285.176 41.9653 283.784 43.5107 283.784 46.0522C283.784 48.5864 285.176 50.1392 287.424 50.1392ZM287.424 49.0039C285.93 49.0039 285.088 47.9199 285.088 46.0522C285.088 44.1772 285.93 43.1006 287.424 43.1006C288.918 43.1006 289.761 44.1772 289.761 46.0522C289.761 47.9199 288.918 49.0039 287.424 49.0039ZM301.201 50.1392C303.201 50.1392 304.512 48.5205 304.512 46.0522C304.512 43.5693 303.208 41.9653 301.201 41.9653C300.117 41.9653 299.158 42.5 298.726 43.3496H298.608V38.9697H297.349V50H298.55V48.7402H298.667C299.165 49.6191 300.103 50.1392 301.201 50.1392ZM300.908 43.1006C302.351 43.1006 303.208 44.2065 303.208 46.0522C303.208 47.8979 302.351 49.0039 300.908 49.0039C299.473 49.0039 298.579 47.876 298.579 46.0522C298.579 44.2285 299.473 43.1006 300.908 43.1006ZM309.734 50.1392C311.982 50.1392 313.374 48.5864 313.374 46.0522C313.374 43.5107 311.982 41.9653 309.734 41.9653C307.485 41.9653 306.094 43.5107 306.094 46.0522C306.094 48.5864 307.485 50.1392 309.734 50.1392ZM309.734 49.0039C308.24 49.0039 307.397 47.9199 307.397 46.0522C307.397 44.1772 308.24 43.1006 309.734 43.1006C311.228 43.1006 312.07 44.1772 312.07 46.0522C312.07 47.9199 311.228 49.0039 309.734 49.0039ZM315.879 40.061V42.1045H314.604V43.1592H315.879V47.9492C315.879 49.458 316.531 50.0586 318.157 50.0586C318.406 50.0586 318.647 50.0293 318.896 49.9854V48.9233C318.662 48.9453 318.538 48.9526 318.311 48.9526C317.49 48.9526 317.139 48.5571 317.139 47.627V43.1592H318.896V42.1045H317.139V40.061H315.879ZM320.874 50H322.134V45.3271C322.134 43.9941 322.91 43.1006 324.324 43.1006C325.518 43.1006 326.147 43.7964 326.147 45.1953V50H327.407V44.8877C327.407 43.0347 326.353 41.9653 324.683 41.9653C323.474 41.9653 322.646 42.478 322.251 43.3496H322.134V38.9697H320.874V50ZM333.757 44.2651C333.757 45.4077 334.431 46.0449 335.911 46.4038L337.266 46.7334C338.108 46.9385 338.518 47.3047 338.518 47.8467C338.518 48.5718 337.756 49.0771 336.694 49.0771C335.684 49.0771 335.054 48.6523 334.841 47.9858H333.545C333.684 49.2969 334.893 50.1392 336.65 50.1392C338.445 50.1392 339.814 49.165 339.814 47.7515C339.814 46.6162 339.097 45.9717 337.61 45.6128L336.394 45.3198C335.464 45.0928 335.024 44.7559 335.024 44.2139C335.024 43.5107 335.757 43.0347 336.694 43.0347C337.646 43.0347 338.262 43.4521 338.43 44.082H339.675C339.507 42.7856 338.357 41.9653 336.702 41.9653C335.024 41.9653 333.757 42.9541 333.757 44.2651ZM342.246 40.061V42.1045H340.972V43.1592H342.246V47.9492C342.246 49.458 342.898 50.0586 344.524 50.0586C344.773 50.0586 345.015 50.0293 345.264 49.9854V48.9233C345.029 48.9453 344.905 48.9526 344.678 48.9526C343.857 48.9526 343.506 48.5571 343.506 47.627V43.1592H345.264V42.1045H343.506V40.061H342.246ZM347.168 50H348.428V45.1074C348.428 43.9941 349.299 43.1885 350.5 43.1885C350.75 43.1885 351.204 43.2324 351.306 43.2617V42.002C351.145 41.98 350.881 41.9653 350.676 41.9653C349.629 41.9653 348.721 42.5073 348.486 43.2764H348.369V42.1045H347.168V50ZM355.811 43.0786C357.063 43.0786 357.898 44.0015 357.927 45.4004H353.577C353.672 44.0015 354.551 43.0786 355.811 43.0786ZM357.891 47.9565C357.561 48.6523 356.873 49.0259 355.854 49.0259C354.514 49.0259 353.643 48.0371 353.577 46.4771V46.4185H359.253V45.9351C359.253 43.4814 357.957 41.9653 355.825 41.9653C353.657 41.9653 352.266 43.5767 352.266 46.0596C352.266 48.5571 353.635 50.1392 355.825 50.1392C357.554 50.1392 358.77 49.3115 359.15 47.9565H357.891ZM361.23 50H362.49V45.3271C362.49 43.9429 363.303 43.1006 364.563 43.1006C365.823 43.1006 366.423 43.7744 366.423 45.1953V50H367.683V44.8877C367.683 43.0127 366.694 41.9653 364.922 41.9653C363.713 41.9653 362.944 42.478 362.549 43.3496H362.432V42.1045H361.23V50ZM373.184 48.7695C371.719 48.7695 370.898 47.6562 370.898 45.9351C370.898 44.2139 371.719 43.1006 373.184 43.1006C374.641 43.1006 375.527 44.2139 375.527 45.9351C375.527 47.6562 374.648 48.7695 373.184 48.7695ZM373.242 53.0322C375.396 53.0322 376.758 51.9043 376.758 50.1392V42.1045H375.557V43.3569H375.439C374.985 42.5073 374.011 41.9653 372.905 41.9653C370.876 41.9653 369.595 43.5693 369.595 45.9351C369.595 48.3008 370.862 49.8828 372.905 49.8828C373.989 49.8828 374.883 49.3921 375.381 48.5205H375.498V50.0732C375.498 51.2378 374.656 51.9336 373.242 51.9336C372.107 51.9336 371.404 51.5161 371.265 50.8716H369.932C370.122 52.1753 371.338 53.0322 373.242 53.0322ZM379.658 40.061V42.1045H378.384V43.1592H379.658V47.9492C379.658 49.458 380.31 50.0586 381.936 50.0586C382.185 50.0586 382.427 50.0293 382.676 49.9854V48.9233C382.441 48.9453 382.317 48.9526 382.09 48.9526C381.27 48.9526 380.918 48.5571 380.918 47.627V43.1592H382.676V42.1045H380.918V40.061H379.658ZM384.653 50H385.913V45.3271C385.913 43.9941 386.689 43.1006 388.103 43.1006C389.297 43.1006 389.927 43.7964 389.927 45.1953V50H391.187V44.8877C391.187 43.0347 390.132 41.9653 388.462 41.9653C387.253 41.9653 386.426 42.478 386.03 43.3496H385.913V38.9697H384.653V50ZM396.636 43.0786C397.888 43.0786 398.723 44.0015 398.752 45.4004H394.402C394.497 44.0015 395.376 43.0786 396.636 43.0786ZM398.716 47.9565C398.386 48.6523 397.698 49.0259 396.68 49.0259C395.339 49.0259 394.468 48.0371 394.402 46.4771V46.4185H400.078V45.9351C400.078 43.4814 398.782 41.9653 396.65 41.9653C394.482 41.9653 393.091 43.5767 393.091 46.0596C393.091 48.5571 394.46 50.1392 396.65 50.1392C398.379 50.1392 399.595 49.3115 399.976 47.9565H398.716ZM402.056 50H403.315V45.3271C403.315 43.9429 404.128 43.1006 405.388 43.1006C406.648 43.1006 407.249 43.7744 407.249 45.1953V50H408.508V44.8877C408.508 43.0127 407.52 41.9653 405.747 41.9653C404.539 41.9653 403.77 42.478 403.374 43.3496H403.257V42.1045H402.056V50ZM415.576 40.061V42.1045H414.302V43.1592H415.576V47.9492C415.576 49.458 416.228 50.0586 417.854 50.0586C418.103 50.0586 418.345 50.0293 418.594 49.9854V48.9233C418.359 48.9453 418.235 48.9526 418.008 48.9526C417.188 48.9526 416.836 48.5571 416.836 47.627V43.1592H418.594V42.1045H416.836V40.061H415.576ZM420.571 50H421.831V45.3271C421.831 43.9941 422.607 43.1006 424.021 43.1006C425.215 43.1006 425.845 43.7964 425.845 45.1953V50H427.104V44.8877C427.104 43.0347 426.05 41.9653 424.38 41.9653C423.171 41.9653 422.344 42.478 421.948 43.3496H421.831V38.9697H420.571V50ZM432.554 43.0786C433.806 43.0786 434.641 44.0015 434.67 45.4004H430.32C430.415 44.0015 431.294 43.0786 432.554 43.0786ZM434.634 47.9565C434.304 48.6523 433.616 49.0259 432.598 49.0259C431.257 49.0259 430.386 48.0371 430.32 46.4771V46.4185H435.996V45.9351C435.996 43.4814 434.7 41.9653 432.568 41.9653C430.4 41.9653 429.009 43.5767 429.009 46.0596C429.009 48.5571 430.378 50.1392 432.568 50.1392C434.297 50.1392 435.513 49.3115 435.894 47.9565H434.634ZM443.723 39.4312H442.405V46.3672C442.405 48.623 443.979 50.249 446.602 50.249C449.224 50.249 450.798 48.623 450.798 46.3672V39.4312H449.48V46.2793C449.48 47.876 448.433 49.0332 446.602 49.0332C444.771 49.0332 443.723 47.876 443.723 46.2793V39.4312ZM453.025 47.2388C453.164 49.0625 454.709 50.249 456.951 50.249C459.368 50.249 460.898 49.0112 460.898 47.0703C460.898 45.5176 460.02 44.668 457.83 44.1187L456.724 43.8257C455.266 43.4521 454.688 42.9761 454.688 42.1484C454.688 41.0791 455.618 40.376 457.024 40.376C458.342 40.376 459.236 41.0205 459.419 42.1045H460.745C460.635 40.3979 459.111 39.1821 457.068 39.1821C454.834 39.1821 453.333 40.3979 453.333 42.1924C453.333 43.6938 454.16 44.5581 456.072 45.0415L457.427 45.3931C458.884 45.7593 459.543 46.3306 459.543 47.2314C459.543 48.2788 458.496 49.0479 457.075 49.0479C455.574 49.0479 454.519 48.3447 454.358 47.2388H453.025ZM466.985 44.2651C466.985 45.4077 467.659 46.0449 469.138 46.4038L470.493 46.7334C471.335 46.9385 471.746 47.3047 471.746 47.8467C471.746 48.5718 470.984 49.0771 469.922 49.0771C468.911 49.0771 468.281 48.6523 468.069 47.9858H466.772C466.912 49.2969 468.12 50.1392 469.878 50.1392C471.672 50.1392 473.042 49.165 473.042 47.7515C473.042 46.6162 472.324 45.9717 470.837 45.6128L469.622 45.3198C468.691 45.0928 468.252 44.7559 468.252 44.2139C468.252 43.5107 468.984 43.0347 469.922 43.0347C470.874 43.0347 471.489 43.4521 471.658 44.082H472.903C472.734 42.7856 471.584 41.9653 469.929 41.9653C468.252 41.9653 466.985 42.9541 466.985 44.2651ZM475.474 40.061V42.1045H474.199V43.1592H475.474V47.9492C475.474 49.458 476.125 50.0586 477.751 50.0586C478 50.0586 478.242 50.0293 478.491 49.9854V48.9233C478.257 48.9453 478.132 48.9526 477.905 48.9526C477.085 48.9526 476.733 48.5571 476.733 47.627V43.1592H478.491V42.1045H476.733V40.061H475.474ZM483.428 43.0786C484.68 43.0786 485.515 44.0015 485.544 45.4004H481.194C481.289 44.0015 482.168 43.0786 483.428 43.0786ZM485.508 47.9565C485.178 48.6523 484.49 49.0259 483.472 49.0259C482.131 49.0259 481.26 48.0371 481.194 46.4771V46.4185H486.87V45.9351C486.87 43.4814 485.574 41.9653 483.442 41.9653C481.274 41.9653 479.883 43.5767 479.883 46.0596C479.883 48.5571 481.252 50.1392 483.442 50.1392C485.171 50.1392 486.387 49.3115 486.768 47.9565H485.508ZM491.997 43.0786C493.25 43.0786 494.084 44.0015 494.114 45.4004H489.763C489.858 44.0015 490.737 43.0786 491.997 43.0786ZM494.077 47.9565C493.748 48.6523 493.059 49.0259 492.041 49.0259C490.701 49.0259 489.829 48.0371 489.763 46.4771V46.4185H495.439V45.9351C495.439 43.4814 494.143 41.9653 492.012 41.9653C489.844 41.9653 488.452 43.5767 488.452 46.0596C488.452 48.5571 489.822 50.1392 492.012 50.1392C493.74 50.1392 494.956 49.3115 495.337 47.9565H494.077ZM497.49 50H498.75V38.9697H497.49V50ZM1.21582 68H2.47559V60.1045H1.21582V68ZM1.8457 58.5005C2.3291 58.5005 2.72461 58.105 2.72461 57.6216C2.72461 57.1382 2.3291 56.7427 1.8457 56.7427C1.3623 56.7427 0.966797 57.1382 0.966797 57.6216C0.966797 58.105 1.3623 58.5005 1.8457 58.5005ZM4.87793 68H6.1377V63.3271C6.1377 61.9429 6.95068 61.1006 8.21045 61.1006C9.47021 61.1006 10.0708 61.7744 10.0708 63.1953V68H11.3306V62.8877C11.3306 61.0127 10.3418 59.9653 8.56934 59.9653C7.36084 59.9653 6.5918 60.478 6.19629 61.3496H6.0791V60.1045H4.87793V68ZM16.5601 68.1392C17.6514 68.1392 18.5889 67.6191 19.0869 66.7402H19.2041V68H20.4053V56.9697H19.1455V61.3496H19.0356C18.5889 60.4854 17.6587 59.9653 16.5601 59.9653C14.5532 59.9653 13.2422 61.5767 13.2422 64.0522C13.2422 66.5352 14.5386 68.1392 16.5601 68.1392ZM16.853 61.1006C18.2812 61.1006 19.1748 62.2432 19.1748 64.0522C19.1748 65.876 18.2886 67.0039 16.853 67.0039C15.4102 67.0039 14.5459 65.8979 14.5459 64.0522C14.5459 62.2139 15.4175 61.1006 16.853 61.1006ZM29.2383 60.1045H27.9785V64.7773C27.9785 66.1616 27.2168 66.9893 25.8252 66.9893C24.5654 66.9893 24.0381 66.3301 24.0381 64.9092V60.1045H22.7783V65.2168C22.7783 67.0845 23.7012 68.1392 25.4736 68.1392C26.6821 68.1392 27.5244 67.6411 27.9199 66.7622H28.0371V68H29.2383V60.1045ZM31.4282 62.2651C31.4282 63.4077 32.1021 64.0449 33.5815 64.4038L34.9365 64.7334C35.7788 64.9385 36.189 65.3047 36.189 65.8467C36.189 66.5718 35.4272 67.0771 34.3652 67.0771C33.3545 67.0771 32.7246 66.6523 32.5122 65.9858H31.2158C31.355 67.2969 32.5635 68.1392 34.3213 68.1392C36.1157 68.1392 37.4854 67.165 37.4854 65.7515C37.4854 64.6162 36.7676 63.9717 35.2808 63.6128L34.0649 63.3198C33.1348 63.0928 32.6953 62.7559 32.6953 62.2139C32.6953 61.5107 33.4277 61.0347 34.3652 61.0347C35.3174 61.0347 35.9326 61.4521 36.1011 62.082H37.3462C37.1777 60.7856 36.0278 59.9653 34.3726 59.9653C32.6953 59.9653 31.4282 60.9541 31.4282 62.2651ZM39.917 58.061V60.1045H38.6426V61.1592H39.917V65.9492C39.917 67.458 40.5688 68.0586 42.1948 68.0586C42.4438 68.0586 42.6855 68.0293 42.9346 67.9854V66.9233C42.7002 66.9453 42.5757 66.9526 42.3486 66.9526C41.5283 66.9526 41.1768 66.5571 41.1768 65.627V61.1592H42.9346V60.1045H41.1768V58.061H39.917ZM44.8389 68H46.0986V63.1074C46.0986 61.9941 46.9702 61.1885 48.1714 61.1885C48.4204 61.1885 48.8745 61.2324 48.9771 61.2617V60.002C48.8159 59.98 48.5522 59.9653 48.3472 59.9653C47.2998 59.9653 46.3916 60.5073 46.1572 61.2764H46.04V60.1045H44.8389V68ZM51.2256 70.8564C52.6245 70.8564 53.2544 70.3145 53.9282 68.4834L57.0117 60.1045H55.6714L53.5107 66.6011H53.3936L51.2256 60.1045H49.8633L52.7856 68.0073L52.6392 68.4761C52.3096 69.4282 51.9141 69.7725 51.189 69.7725C51.0132 69.7725 50.8154 69.7651 50.6616 69.7358V70.8125C50.8374 70.8418 51.0571 70.8564 51.2256 70.8564ZM65.3613 67.0332C64.4458 67.0332 63.7646 66.5645 63.7646 65.7588C63.7646 64.9678 64.292 64.5503 65.4932 64.4697L67.6172 64.3306V65.0557C67.6172 66.1836 66.6577 67.0332 65.3613 67.0332ZM65.127 68.1392C66.1816 68.1392 67.0459 67.6777 67.5586 66.8354H67.6758V68H68.877V62.5947C68.877 60.9541 67.8003 59.9653 65.874 59.9653C64.1895 59.9653 62.9443 60.8003 62.7759 62.0674H64.0503C64.2261 61.4448 64.8853 61.0859 65.8301 61.0859C67.0093 61.0859 67.6172 61.6206 67.6172 62.5947V63.3125L65.3394 63.4517C63.501 63.5615 62.4609 64.3745 62.4609 65.7881C62.4609 67.231 63.5962 68.1392 65.127 68.1392ZM71.2061 68H72.4658V63.3271C72.4658 61.9429 73.2788 61.1006 74.5386 61.1006C75.7983 61.1006 76.3989 61.7744 76.3989 63.1953V68H77.6587V62.8877C77.6587 61.0127 76.6699 59.9653 74.8975 59.9653C73.689 59.9653 72.9199 60.478 72.5244 61.3496H72.4072V60.1045H71.2061V68ZM82.8882 68.1392C83.9795 68.1392 84.917 67.6191 85.415 66.7402H85.5322V68H86.7334V56.9697H85.4736V61.3496H85.3638C84.917 60.4854 83.9868 59.9653 82.8882 59.9653C80.8813 59.9653 79.5703 61.5767 79.5703 64.0522C79.5703 66.5352 80.8667 68.1392 82.8882 68.1392ZM83.1812 61.1006C84.6094 61.1006 85.5029 62.2432 85.5029 64.0522C85.5029 65.876 84.6167 67.0039 83.1812 67.0039C81.7383 67.0039 80.874 65.8979 80.874 64.0522C80.874 62.2139 81.7456 61.1006 83.1812 61.1006ZM99.9463 62.5215C99.7266 61.1152 98.5547 59.9653 96.6357 59.9653C94.4238 59.9653 93.0176 61.562 93.0176 64.0229C93.0176 66.5352 94.4312 68.1392 96.6431 68.1392C98.54 68.1392 99.7192 67.0698 99.9463 65.6196H98.6719C98.4375 66.5132 97.6978 67.0039 96.6357 67.0039C95.2295 67.0039 94.3213 65.8467 94.3213 64.0229C94.3213 62.2358 95.2148 61.1006 96.6357 61.1006C97.771 61.1006 98.4668 61.7378 98.6719 62.5215H99.9463ZM105.051 68.1392C107.3 68.1392 108.691 66.5864 108.691 64.0522C108.691 61.5107 107.3 59.9653 105.051 59.9653C102.803 59.9653 101.411 61.5107 101.411 64.0522C101.411 66.5864 102.803 68.1392 105.051 68.1392ZM105.051 67.0039C103.557 67.0039 102.715 65.9199 102.715 64.0522C102.715 62.1772 103.557 61.1006 105.051 61.1006C106.545 61.1006 107.388 62.1772 107.388 64.0522C107.388 65.9199 106.545 67.0039 105.051 67.0039ZM110.669 68H111.929V63.1074C111.929 61.9941 112.727 61.1006 113.76 61.1006C114.756 61.1006 115.408 61.7012 115.408 62.6387V68H116.667V62.9243C116.667 61.9209 117.4 61.1006 118.499 61.1006C119.612 61.1006 120.161 61.6719 120.161 62.8364V68H121.421V62.5435C121.421 60.8882 120.52 59.9653 118.909 59.9653C117.817 59.9653 116.917 60.5146 116.492 61.3496H116.375C116.008 60.5293 115.261 59.9653 114.192 59.9653C113.137 59.9653 112.346 60.4707 111.987 61.3496H111.87V60.1045H110.669V68ZM127.646 68.1392C129.646 68.1392 130.957 66.5205 130.957 64.0522C130.957 61.5693 129.653 59.9653 127.646 59.9653C126.562 59.9653 125.603 60.5 125.171 61.3496H125.054V56.9697H123.794V68H124.995V66.7402H125.112C125.61 67.6191 126.548 68.1392 127.646 68.1392ZM127.354 61.1006C128.796 61.1006 129.653 62.2065 129.653 64.0522C129.653 65.8979 128.796 67.0039 127.354 67.0039C125.918 67.0039 125.024 65.876 125.024 64.0522C125.024 62.2285 125.918 61.1006 127.354 61.1006ZM135.366 67.0332C134.451 67.0332 133.77 66.5645 133.77 65.7588C133.77 64.9678 134.297 64.5503 135.498 64.4697L137.622 64.3306V65.0557C137.622 66.1836 136.663 67.0332 135.366 67.0332ZM135.132 68.1392C136.187 68.1392 137.051 67.6777 137.563 66.8354H137.681V68H138.882V62.5947C138.882 60.9541 137.805 59.9653 135.879 59.9653C134.194 59.9653 132.949 60.8003 132.781 62.0674H134.055C134.231 61.4448 134.89 61.0859 135.835 61.0859C137.014 61.0859 137.622 61.6206 137.622 62.5947V63.3125L135.344 63.4517C133.506 63.5615 132.466 64.3745 132.466 65.7881C132.466 67.231 133.601 68.1392 135.132 68.1392ZM141.738 58.061V60.1045H140.464V61.1592H141.738V65.9492C141.738 67.458 142.39 68.0586 144.016 68.0586C144.265 68.0586 144.507 68.0293 144.756 67.9854V66.9233C144.521 66.9453 144.397 66.9526 144.17 66.9526C143.35 66.9526 142.998 66.5571 142.998 65.627V61.1592H144.756V60.1045H142.998V58.061H141.738ZM151.421 58.061V60.1045H150.146V61.1592H151.421V65.9492C151.421 67.458 152.073 68.0586 153.699 68.0586C153.948 68.0586 154.189 68.0293 154.438 67.9854V66.9233C154.204 66.9453 154.08 66.9526 153.853 66.9526C153.032 66.9526 152.681 66.5571 152.681 65.627V61.1592H154.438V60.1045H152.681V58.061H151.421ZM156.416 68H157.676V63.3271C157.676 61.9941 158.452 61.1006 159.866 61.1006C161.06 61.1006 161.689 61.7964 161.689 63.1953V68H162.949V62.8877C162.949 61.0347 161.895 59.9653 160.225 59.9653C159.016 59.9653 158.188 60.478 157.793 61.3496H157.676V56.9697H156.416V68ZM168.398 61.0786C169.651 61.0786 170.486 62.0015 170.515 63.4004H166.165C166.26 62.0015 167.139 61.0786 168.398 61.0786ZM170.479 65.9565C170.149 66.6523 169.46 67.0259 168.442 67.0259C167.102 67.0259 166.23 66.0371 166.165 64.4771V64.4185H171.841V63.9351C171.841 61.4814 170.544 59.9653 168.413 59.9653C166.245 59.9653 164.854 61.5767 164.854 64.0596C164.854 66.5571 166.223 68.1392 168.413 68.1392C170.142 68.1392 171.357 67.3115 171.738 65.9565H170.479ZM181.245 66.7695C179.78 66.7695 178.96 65.6562 178.96 63.9351C178.96 62.2139 179.78 61.1006 181.245 61.1006C182.703 61.1006 183.589 62.2139 183.589 63.9351C183.589 65.6562 182.71 66.7695 181.245 66.7695ZM181.304 71.0322C183.457 71.0322 184.819 69.9043 184.819 68.1392V60.1045H183.618V61.3569H183.501C183.047 60.5073 182.073 59.9653 180.967 59.9653C178.938 59.9653 177.656 61.5693 177.656 63.9351C177.656 66.3008 178.923 67.8828 180.967 67.8828C182.051 67.8828 182.944 67.3921 183.442 66.5205H183.56V68.0732C183.56 69.2378 182.717 69.9336 181.304 69.9336C180.168 69.9336 179.465 69.5161 179.326 68.8716H177.993C178.184 70.1753 179.399 71.0322 181.304 71.0322ZM187.266 68H188.525V56.9697H187.266V68ZM194.216 68.1392C196.465 68.1392 197.856 66.5864 197.856 64.0522C197.856 61.5107 196.465 59.9653 194.216 59.9653C191.968 59.9653 190.576 61.5107 190.576 64.0522C190.576 66.5864 191.968 68.1392 194.216 68.1392ZM194.216 67.0039C192.722 67.0039 191.88 65.9199 191.88 64.0522C191.88 62.1772 192.722 61.1006 194.216 61.1006C195.71 61.1006 196.553 62.1772 196.553 64.0522C196.553 65.9199 195.71 67.0039 194.216 67.0039ZM203.76 68.1392C205.759 68.1392 207.07 66.5205 207.07 64.0522C207.07 61.5693 205.767 59.9653 203.76 59.9653C202.676 59.9653 201.716 60.5 201.284 61.3496H201.167V56.9697H199.907V68H201.108V66.7402H201.226C201.724 67.6191 202.661 68.1392 203.76 68.1392ZM203.467 61.1006C204.91 61.1006 205.767 62.2065 205.767 64.0522C205.767 65.8979 204.91 67.0039 203.467 67.0039C202.031 67.0039 201.138 65.876 201.138 64.0522C201.138 62.2285 202.031 61.1006 203.467 61.1006ZM211.479 67.0332C210.564 67.0332 209.883 66.5645 209.883 65.7588C209.883 64.9678 210.41 64.5503 211.611 64.4697L213.735 64.3306V65.0557C213.735 66.1836 212.776 67.0332 211.479 67.0332ZM211.245 68.1392C212.3 68.1392 213.164 67.6777 213.677 66.8354H213.794V68H214.995V62.5947C214.995 60.9541 213.918 59.9653 211.992 59.9653C210.308 59.9653 209.062 60.8003 208.894 62.0674H210.168C210.344 61.4448 211.003 61.0859 211.948 61.0859C213.127 61.0859 213.735 61.6206 213.735 62.5947V63.3125L211.458 63.4517C209.619 63.5615 208.579 64.3745 208.579 65.7881C208.579 67.231 209.714 68.1392 211.245 68.1392ZM217.397 68H218.657V56.9697H217.397V68ZM231.87 62.5215C231.65 61.1152 230.479 59.9653 228.56 59.9653C226.348 59.9653 224.941 61.562 224.941 64.0229C224.941 66.5352 226.355 68.1392 228.567 68.1392C230.464 68.1392 231.643 67.0698 231.87 65.6196H230.596C230.361 66.5132 229.622 67.0039 228.56 67.0039C227.153 67.0039 226.245 65.8467 226.245 64.0229C226.245 62.2358 227.139 61.1006 228.56 61.1006C229.695 61.1006 230.391 61.7378 230.596 62.5215H231.87ZM233.804 68H235.063V56.9697H233.804V68ZM237.539 68H238.799V60.1045H237.539V68ZM238.169 58.5005C238.652 58.5005 239.048 58.105 239.048 57.6216C239.048 57.1382 238.652 56.7427 238.169 56.7427C237.686 56.7427 237.29 57.1382 237.29 57.6216C237.29 58.105 237.686 58.5005 238.169 58.5005ZM241.201 68H242.461V63.1074C242.461 61.9941 243.259 61.1006 244.292 61.1006C245.288 61.1006 245.94 61.7012 245.94 62.6387V68H247.2V62.9243C247.2 61.9209 247.932 61.1006 249.031 61.1006C250.144 61.1006 250.693 61.6719 250.693 62.8364V68H251.953V62.5435C251.953 60.8882 251.052 59.9653 249.441 59.9653C248.35 59.9653 247.449 60.5146 247.024 61.3496H246.907C246.541 60.5293 245.793 59.9653 244.724 59.9653C243.669 59.9653 242.878 60.4707 242.52 61.3496H242.402V60.1045H241.201V68ZM256.685 67.0332C255.769 67.0332 255.088 66.5645 255.088 65.7588C255.088 64.9678 255.615 64.5503 256.816 64.4697L258.94 64.3306V65.0557C258.94 66.1836 257.981 67.0332 256.685 67.0332ZM256.45 68.1392C257.505 68.1392 258.369 67.6777 258.882 66.8354H258.999V68H260.2V62.5947C260.2 60.9541 259.124 59.9653 257.197 59.9653C255.513 59.9653 254.268 60.8003 254.099 62.0674H255.374C255.549 61.4448 256.208 61.0859 257.153 61.0859C258.333 61.0859 258.94 61.6206 258.94 62.5947V63.3125L256.663 63.4517C254.824 63.5615 253.784 64.3745 253.784 65.7881C253.784 67.231 254.919 68.1392 256.45 68.1392ZM263.057 58.061V60.1045H261.782V61.1592H263.057V65.9492C263.057 67.458 263.708 68.0586 265.334 68.0586C265.583 68.0586 265.825 68.0293 266.074 67.9854V66.9233C265.84 66.9453 265.715 66.9526 265.488 66.9526C264.668 66.9526 264.316 66.5571 264.316 65.627V61.1592H266.074V60.1045H264.316V58.061H263.057ZM271.011 61.0786C272.263 61.0786 273.098 62.0015 273.127 63.4004H268.777C268.872 62.0015 269.751 61.0786 271.011 61.0786ZM273.091 65.9565C272.761 66.6523 272.073 67.0259 271.055 67.0259C269.714 67.0259 268.843 66.0371 268.777 64.4771V64.4185H274.453V63.9351C274.453 61.4814 273.157 59.9653 271.025 59.9653C268.857 59.9653 267.466 61.5767 267.466 64.0596C267.466 66.5571 268.835 68.1392 271.025 68.1392C272.754 68.1392 273.97 67.3115 274.351 65.9565H273.091ZM287.197 62.5215C286.978 61.1152 285.806 59.9653 283.887 59.9653C281.675 59.9653 280.269 61.562 280.269 64.0229C280.269 66.5352 281.682 68.1392 283.894 68.1392C285.791 68.1392 286.97 67.0698 287.197 65.6196H285.923C285.688 66.5132 284.949 67.0039 283.887 67.0039C282.48 67.0039 281.572 65.8467 281.572 64.0229C281.572 62.2358 282.466 61.1006 283.887 61.1006C285.022 61.1006 285.718 61.7378 285.923 62.5215H287.197ZM289.058 68H290.317V63.1074C290.317 61.9941 291.189 61.1885 292.39 61.1885C292.639 61.1885 293.093 61.2324 293.196 61.2617V60.002C293.035 59.98 292.771 59.9653 292.566 59.9653C291.519 59.9653 290.61 60.5073 290.376 61.2764H290.259V60.1045H289.058V68ZM294.8 68H296.06V60.1045H294.8V68ZM295.43 58.5005C295.913 58.5005 296.309 58.105 296.309 57.6216C296.309 57.1382 295.913 56.7427 295.43 56.7427C294.946 56.7427 294.551 57.1382 294.551 57.6216C294.551 58.105 294.946 58.5005 295.43 58.5005ZM298.279 62.2651C298.279 63.4077 298.953 64.0449 300.432 64.4038L301.787 64.7334C302.629 64.9385 303.04 65.3047 303.04 65.8467C303.04 66.5718 302.278 67.0771 301.216 67.0771C300.205 67.0771 299.575 66.6523 299.363 65.9858H298.066C298.206 67.2969 299.414 68.1392 301.172 68.1392C302.966 68.1392 304.336 67.165 304.336 65.7515C304.336 64.6162 303.618 63.9717 302.131 63.6128L300.916 63.3198C299.985 63.0928 299.546 62.7559 299.546 62.2139C299.546 61.5107 300.278 61.0347 301.216 61.0347C302.168 61.0347 302.783 61.4521 302.952 62.082H304.197C304.028 60.7856 302.878 59.9653 301.223 59.9653C299.546 59.9653 298.279 60.9541 298.279 62.2651ZM306.343 68H307.603V60.1045H306.343V68ZM306.973 58.5005C307.456 58.5005 307.852 58.105 307.852 57.6216C307.852 57.1382 307.456 56.7427 306.973 56.7427C306.489 56.7427 306.094 57.1382 306.094 57.6216C306.094 58.105 306.489 58.5005 306.973 58.5005ZM309.822 62.2651C309.822 63.4077 310.496 64.0449 311.975 64.4038L313.33 64.7334C314.172 64.9385 314.583 65.3047 314.583 65.8467C314.583 66.5718 313.821 67.0771 312.759 67.0771C311.748 67.0771 311.118 66.6523 310.906 65.9858H309.609C309.749 67.2969 310.957 68.1392 312.715 68.1392C314.509 68.1392 315.879 67.165 315.879 65.7515C315.879 64.6162 315.161 63.9717 313.674 63.6128L312.458 63.3198C311.528 63.0928 311.089 62.7559 311.089 62.2139C311.089 61.5107 311.821 61.0347 312.759 61.0347C313.711 61.0347 314.326 61.4521 314.495 62.082H315.74C315.571 60.7856 314.421 59.9653 312.766 59.9653C311.089 59.9653 309.822 60.9541 309.822 62.2651ZM318.896 68.0732C319.424 68.0732 319.849 67.6411 319.849 67.1211C319.849 66.5938 319.424 66.1689 318.896 66.1689C318.376 66.1689 317.944 66.5938 317.944 67.1211C317.944 67.6411 318.376 68.0732 318.896 68.0732Z" fill="#D9D9D9"/>
</svg>
