<svg width="143" height="20" viewBox="0 0 143 20" fill="none" xmlns="http://www.w3.org/2000/svg">
<path d="M5.77148 14.271C8.32031 14.271 10.1807 12.6963 10.3638 10.4111H8.21045C7.99805 11.5757 7.0459 12.3228 5.77881 12.3228C4.10889 12.3228 3.07617 10.9385 3.07617 8.71191C3.07617 6.48535 4.10889 5.1084 5.77148 5.1084C7.03125 5.1084 7.99072 5.90674 8.20312 7.12256H10.3564C10.1953 4.82275 8.27637 3.16016 5.77148 3.16016C2.70264 3.16016 0.812988 5.27686 0.812988 8.71191C0.812988 12.1543 2.70996 14.271 5.77148 14.271ZM14.5166 14V7.38623H14.6484L19.5264 14H21.3574V3.43115H19.2407V10.0156H19.1089L14.2456 3.43115H12.3999V14H14.5166ZM26.0449 14V7.38623H26.1768L31.0547 14H32.8857V3.43115H30.769V10.0156H30.6372L25.7739 3.43115H23.9282V14H26.0449Z" fill="#D9D9D9"/>
<path d="M55.75 10.4167C55.75 9.1 55.0208 7.95833 53.96 7.41667C54.0883 7.05417 54.1583 6.6625 54.1583 6.25C54.1583 4.40833 52.7333 2.91833 50.9767 2.91833C50.585 2.91833 50.21 2.98833 49.8633 3.12667C49.3483 2.0125 48.2583 1.25 47 1.25C45.7417 1.25 44.6533 2.01417 44.1358 3.125C43.79 2.9875 43.4142 2.91667 43.0225 2.91667C41.2642 2.91667 39.8408 4.40833 39.8408 6.25C39.8408 6.66167 39.91 7.05333 40.0383 7.41667C38.9783 7.95833 38.2492 9.09833 38.2492 10.4167C38.2492 11.6625 38.9008 12.7483 39.8675 13.3217C39.8508 13.4633 39.8408 13.605 39.8408 13.75C39.8408 15.5917 41.2642 17.0833 43.0225 17.0833C43.4142 17.0833 43.7892 17.0117 44.135 16.875C44.6517 17.9867 45.74 18.75 46.9992 18.75C48.2592 18.75 49.3475 17.9867 49.8633 16.875C50.2092 17.0108 50.5842 17.0817 50.9767 17.0817C52.735 17.0817 54.1583 15.59 54.1583 13.7483C54.1583 13.6033 54.1483 13.4617 54.1308 13.3208C55.0958 12.7483 55.75 11.6625 55.75 10.4175V10.4167ZM50.2367 7.63833L46.625 13.055C46.5042 13.2358 46.3067 13.3333 46.1042 13.3333C45.985 13.3333 45.8642 13.3 45.7575 13.2283L45.6617 13.15L43.6492 11.1375C43.405 10.8933 43.405 10.4975 43.6492 10.2542C43.8933 10.0108 44.2892 10.0092 44.5325 10.2542L46.0075 11.7267L49.195 6.94333C49.3867 6.65583 49.775 6.58 50.0617 6.77083C50.35 6.9625 50.4283 7.35083 50.2367 7.6375V7.63833Z" fill="#D9D9D9"/>
<path d="M67.8042 7.36426C68.8882 7.36426 69.5767 8.23584 69.5767 9.61279C69.5767 11.0117 68.8809 11.9199 67.7969 11.9199C66.7202 11.9199 66.0244 11.0337 66.0244 9.64941C66.0244 8.27246 66.7349 7.36426 67.8042 7.36426ZM68.0386 3.49707C64.4863 3.49707 62.0107 5.99463 62.0107 9.57617C62.0107 13.2822 64.4204 15.6992 68.1118 15.6992C69.064 15.6992 69.9355 15.582 70.5508 15.377V14.6519C70.0601 14.8496 69.1226 14.9741 68.1191 14.9741C64.9258 14.9741 62.8091 12.8354 62.8091 9.60547C62.8091 6.47803 64.9844 4.22217 67.9727 4.22217C71.0049 4.22217 73.0923 6.14111 73.0923 8.93164C73.0923 10.8433 72.4771 12.0225 71.4736 12.0225C70.8071 12.0225 70.4409 11.6416 70.4409 10.9385V6.72705H69.5913V7.75977H69.4961C69.2178 7.04199 68.5 6.58057 67.6797 6.58057C66.1782 6.58057 65.1235 7.83301 65.1235 9.62744C65.1235 11.4658 66.1636 12.7183 67.6797 12.7183C68.5659 12.7183 69.2471 12.2568 69.5767 11.4219H69.6719C69.7524 12.2275 70.4189 12.7695 71.3271 12.7695C72.9165 12.7695 73.8979 11.312 73.8979 8.94629C73.8979 5.73096 71.4956 3.49707 68.0386 3.49707ZM80.2993 14.2197C82.5405 14.2197 84.2104 12.9307 84.5107 10.9897H83.4927C83.1997 12.3813 81.9326 13.2896 80.2993 13.2896C78.0728 13.2896 76.6665 11.5171 76.6665 8.71924C76.6665 5.92139 78.0801 4.1416 80.292 4.1416C81.8813 4.1416 83.1851 5.16699 83.4927 6.66113H84.5107C84.2251 4.6543 82.4673 3.21143 80.292 3.21143C77.4282 3.21143 75.6411 5.32812 75.6411 8.71924C75.6411 12.1104 77.4282 14.2197 80.2993 14.2197ZM87.7188 14V5.21826H87.814L93.9956 14H94.9624V3.43115H93.9736V12.2056H93.8784L87.7188 3.43115H86.73V14H87.7188ZM98.6611 14V5.21826H98.7563L104.938 14H105.905V3.43115H104.916V12.2056H104.821L98.6611 3.43115H97.6724V14H98.6611Z" fill="#6E767D"/>
<path d="M114.175 14.0586C114.607 14.0586 114.944 13.7144 114.944 13.2896C114.944 12.8574 114.607 12.5132 114.175 12.5132C113.743 12.5132 113.399 12.8574 113.399 13.2896C113.399 13.7144 113.743 14.0586 114.175 14.0586Z" fill="#6E767D"/>
<path d="M122.758 14H123.827L128.668 4.36865V3.43115H121.784V4.33203H127.643V4.4126L122.758 14ZM130.661 14H131.62V9.15869C131.62 7.86963 132.506 6.84424 133.649 6.84424C134.74 6.84424 135.465 7.58398 135.465 8.71924V14H136.425V8.99756C136.425 7.77441 137.238 6.84424 138.454 6.84424C139.64 6.84424 140.277 7.53271 140.277 8.82178V14H141.237V8.60205C141.237 6.93213 140.321 5.97998 138.739 5.97998C137.604 5.97998 136.681 6.58789 136.278 7.53271H136.183C135.846 6.58789 135.055 5.97998 133.949 5.97998C132.858 5.97998 132.016 6.56592 131.671 7.53271H131.576V6.11182H130.661V14Z" fill="#6E767D"/>
</svg>
